<!DOCTYPE svg PUBLIC "-//W3C//DTD SVG 1.1//EN" "http://www.w3.org/Graphics/SVG/1.1/DTD/svg11.dtd">
<svg xmlns="http://www.w3.org/2000/svg" xmlns:xlink="http://www.w3.org/1999/xlink" xmlns:jfreesvg="http://www.jfree.org/jfreesvg/svg" width="800" height="400" text-rendering="auto" shape-rendering="auto">
<defs><clipPath id="_68799444603252clip-0"><path d="M 0 0 L 800 0 L 800 400 L 0 400 L 0 0 Z "/></clipPath>
<clipPath id="_68799444603252clip-1"><path d="M 210.5 163.5 L 210.5 963.5 L -189.5 963.5 L -189.5 163.5 L 210.5 163.5 Z "/></clipPath>
<clipPath id="_68799444603252clip-2"><path d="M 79 31 L 79 343 L 792 343 L 792 31 Z "/></clipPath>
</defs>
<rect x="0" y="0" width="800" height="400" style="fill: rgb(250,250,250); fill-opacity: 1.0" transform="matrix(1,0,0,1,0,0)" clip-path="url(#_68799444603252clip-0)"/><g transform="matrix(1,0,0,1,0,0)"><text x="225" y="20.34" style="fill: rgb(0,0,0); fill-opacity: 1.0; font-family: sans-serif; font-size: 20px;" clip-path="url(#_68799444603252clip-0)">Normal via ICDF from VanDerCorput</text></g><rect x="79" y="31" width="713" height="312" style="fill: rgb(255,255,255); fill-opacity: 1.0" transform="matrix(1,0,0,1,0,0)" clip-path="url(#_68799444603252clip-0)"/><line x1="79" y1="343" x2="792" y2="343" style="stroke-width: 0.5;stroke: rgb(128,128,128);stroke-opacity: 1.0;stroke-linecap: square;shape-rendering:crispEdges;" transform="matrix(1,0,0,1,0,0)" clip-path="url(#_68799444603252clip-0)"/><g transform="matrix(1,0,0,1,0,0)"><text x="107.14" y="361.5" style="fill: rgb(0,0,0); fill-opacity: 1.0; font-family: serif; font-size: 18px;" clip-path="url(#_68799444603252clip-0)">-4</text></g><line x1="114.64" y1="345" x2="114.64" y2="343" style="stroke-width: 0.5;stroke: rgb(128,128,128);stroke-opacity: 1.0;stroke-linecap: square;shape-rendering:crispEdges;" transform="matrix(1,0,0,1,0,0)" clip-path="url(#_68799444603252clip-0)"/><g transform="matrix(1,0,0,1,0,0)"><text x="187.36" y="361.5" style="fill: rgb(0,0,0); fill-opacity: 1.0; font-family: serif; font-size: 18px;" clip-path="url(#_68799444603252clip-0)">-3</text></g><line x1="194.86" y1="345" x2="194.86" y2="343" style="stroke-width: 0.5;stroke: rgb(128,128,128);stroke-opacity: 1.0;stroke-linecap: square;shape-rendering:crispEdges;" transform="matrix(1,0,0,1,0,0)" clip-path="url(#_68799444603252clip-0)"/><g transform="matrix(1,0,0,1,0,0)"><text x="267.57" y="361.5" style="fill: rgb(0,0,0); fill-opacity: 1.0; font-family: serif; font-size: 18px;" clip-path="url(#_68799444603252clip-0)">-2</text></g><line x1="275.07" y1="345" x2="275.07" y2="343" style="stroke-width: 0.5;stroke: rgb(128,128,128);stroke-opacity: 1.0;stroke-linecap: square;shape-rendering:crispEdges;" transform="matrix(1,0,0,1,0,0)" clip-path="url(#_68799444603252clip-0)"/><g transform="matrix(1,0,0,1,0,0)"><text x="347.79" y="361.5" style="fill: rgb(0,0,0); fill-opacity: 1.0; font-family: serif; font-size: 18px;" clip-path="url(#_68799444603252clip-0)">-1</text></g><line x1="355.29" y1="345" x2="355.29" y2="343" style="stroke-width: 0.5;stroke: rgb(128,128,128);stroke-opacity: 1.0;stroke-linecap: square;shape-rendering:crispEdges;" transform="matrix(1,0,0,1,0,0)" clip-path="url(#_68799444603252clip-0)"/><g transform="matrix(1,0,0,1,0,0)"><text x="431.01" y="361.5" style="fill: rgb(0,0,0); fill-opacity: 1.0; font-family: serif; font-size: 18px;" clip-path="url(#_68799444603252clip-0)">0</text></g><line x1="435.51" y1="345" x2="435.51" y2="343" style="stroke-width: 0.5;stroke: rgb(128,128,128);stroke-opacity: 1.0;stroke-linecap: square;shape-rendering:crispEdges;" transform="matrix(1,0,0,1,0,0)" clip-path="url(#_68799444603252clip-0)"/><g transform="matrix(1,0,0,1,0,0)"><text x="511.23" y="361.5" style="fill: rgb(0,0,0); fill-opacity: 1.0; font-family: serif; font-size: 18px;" clip-path="url(#_68799444603252clip-0)">1</text></g><line x1="515.73" y1="345" x2="515.73" y2="343" style="stroke-width: 0.5;stroke: rgb(128,128,128);stroke-opacity: 1.0;stroke-linecap: square;shape-rendering:crispEdges;" transform="matrix(1,0,0,1,0,0)" clip-path="url(#_68799444603252clip-0)"/><g transform="matrix(1,0,0,1,0,0)"><text x="591.45" y="361.5" style="fill: rgb(0,0,0); fill-opacity: 1.0; font-family: serif; font-size: 18px;" clip-path="url(#_68799444603252clip-0)">2</text></g><line x1="595.95" y1="345" x2="595.95" y2="343" style="stroke-width: 0.5;stroke: rgb(128,128,128);stroke-opacity: 1.0;stroke-linecap: square;shape-rendering:crispEdges;" transform="matrix(1,0,0,1,0,0)" clip-path="url(#_68799444603252clip-0)"/><g transform="matrix(1,0,0,1,0,0)"><text x="671.67" y="361.5" style="fill: rgb(0,0,0); fill-opacity: 1.0; font-family: serif; font-size: 18px;" clip-path="url(#_68799444603252clip-0)">3</text></g><line x1="676.17" y1="345" x2="676.17" y2="343" style="stroke-width: 0.5;stroke: rgb(128,128,128);stroke-opacity: 1.0;stroke-linecap: square;shape-rendering:crispEdges;" transform="matrix(1,0,0,1,0,0)" clip-path="url(#_68799444603252clip-0)"/><g transform="matrix(1,0,0,1,0,0)"><text x="751.88" y="361.5" style="fill: rgb(0,0,0); fill-opacity: 1.0; font-family: serif; font-size: 18px;" clip-path="url(#_68799444603252clip-0)">4</text></g><line x1="756.38" y1="345" x2="756.38" y2="343" style="stroke-width: 0.5;stroke: rgb(128,128,128);stroke-opacity: 1.0;stroke-linecap: square;shape-rendering:crispEdges;" transform="matrix(1,0,0,1,0,0)" clip-path="url(#_68799444603252clip-0)"/><g transform="matrix(1,0,0,1,0,0)"><text x="405.5" y="388.78" style="fill: rgb(0,0,0); fill-opacity: 1.0; font-family: sans-serif; font-size: 20px;" clip-path="url(#_68799444603252clip-0)">values</text></g><line x1="79" y1="31" x2="79" y2="343" style="stroke-width: 0.5;stroke: rgb(128,128,128);stroke-opacity: 1.0;stroke-linecap: square;shape-rendering:crispEdges;" transform="matrix(1,0,0,1,0,0)" clip-path="url(#_68799444603252clip-0)"/><g transform="matrix(1,0,0,1,0,0)"><text x="64" y="348" style="fill: rgb(0,0,0); fill-opacity: 1.0; font-family: serif; font-size: 18px;" clip-path="url(#_68799444603252clip-0)">0</text></g><line x1="77" y1="343" x2="79" y2="343" style="stroke-width: 0.5;stroke: rgb(128,128,128);stroke-opacity: 1.0;stroke-linecap: square;shape-rendering:crispEdges;" transform="matrix(1,0,0,1,0,0)" clip-path="url(#_68799444603252clip-0)"/><g transform="matrix(1,0,0,1,0,0)"><text x="41" y="301.89" style="fill: rgb(0,0,0); fill-opacity: 1.0; font-family: serif; font-size: 18px;" clip-path="url(#_68799444603252clip-0)">0.01</text></g><line x1="77" y1="296.89" x2="79" y2="296.89" style="stroke-width: 0.5;stroke: rgb(128,128,128);stroke-opacity: 1.0;stroke-linecap: square;shape-rendering:crispEdges;" transform="matrix(1,0,0,1,0,0)" clip-path="url(#_68799444603252clip-0)"/><g transform="matrix(1,0,0,1,0,0)"><text x="41" y="255.78" style="fill: rgb(0,0,0); fill-opacity: 1.0; font-family: serif; font-size: 18px;" clip-path="url(#_68799444603252clip-0)">0.01</text></g><line x1="77" y1="250.78" x2="79" y2="250.78" style="stroke-width: 0.5;stroke: rgb(128,128,128);stroke-opacity: 1.0;stroke-linecap: square;shape-rendering:crispEdges;" transform="matrix(1,0,0,1,0,0)" clip-path="url(#_68799444603252clip-0)"/><g transform="matrix(1,0,0,1,0,0)"><text x="41" y="209.67" style="fill: rgb(0,0,0); fill-opacity: 1.0; font-family: serif; font-size: 18px;" clip-path="url(#_68799444603252clip-0)">0.01</text></g><line x1="77" y1="204.67" x2="79" y2="204.67" style="stroke-width: 0.5;stroke: rgb(128,128,128);stroke-opacity: 1.0;stroke-linecap: square;shape-rendering:crispEdges;" transform="matrix(1,0,0,1,0,0)" clip-path="url(#_68799444603252clip-0)"/><g transform="matrix(1,0,0,1,0,0)"><text x="41" y="163.55" style="fill: rgb(0,0,0); fill-opacity: 1.0; font-family: serif; font-size: 18px;" clip-path="url(#_68799444603252clip-0)">0.02</text></g><line x1="77" y1="158.55" x2="79" y2="158.55" style="stroke-width: 0.5;stroke: rgb(128,128,128);stroke-opacity: 1.0;stroke-linecap: square;shape-rendering:crispEdges;" transform="matrix(1,0,0,1,0,0)" clip-path="url(#_68799444603252clip-0)"/><g transform="matrix(1,0,0,1,0,0)"><text x="41" y="117.44" style="fill: rgb(0,0,0); fill-opacity: 1.0; font-family: serif; font-size: 18px;" clip-path="url(#_68799444603252clip-0)">0.03</text></g><line x1="77" y1="112.44" x2="79" y2="112.44" style="stroke-width: 0.5;stroke: rgb(128,128,128);stroke-opacity: 1.0;stroke-linecap: square;shape-rendering:crispEdges;" transform="matrix(1,0,0,1,0,0)" clip-path="url(#_68799444603252clip-0)"/><g transform="matrix(1,0,0,1,0,0)"><text x="41" y="71.33" style="fill: rgb(0,0,0); fill-opacity: 1.0; font-family: serif; font-size: 18px;" clip-path="url(#_68799444603252clip-0)">0.03</text></g><line x1="77" y1="66.33" x2="79" y2="66.33" style="stroke-width: 0.5;stroke: rgb(128,128,128);stroke-opacity: 1.0;stroke-linecap: square;shape-rendering:crispEdges;" transform="matrix(1,0,0,1,0,0)" clip-path="url(#_68799444603252clip-0)"/><g style="fill: rgb(0,0,0); fill-opacity: 1.0; stroke: none" transform="matrix(0,-1,1,0,-163.5,210.5)" clip-path="url(#_68799444603252clip-1)"><path d="M -19.28 186.12 L -19.28 195.28 L -21.21 195.28 L -21.21 186.12 L -22.72 186.12 L -22.72 184.68 L -21.21 184.68 L -21.21 183.41 Q -21.21 179.62 -17.76 179.62 Q -16.79 179.62 -15.56 179.94 L -15.56 181.46 Q -16.86 181.06 -17.64 181.06 Q -18.59 181.06 -18.93 181.52 Q -19.28 181.97 -19.28 183.2 L -19.28 184.68 L -16.63 184.68 L -16.63 186.12 Z  M -14.22 195.28 L -14.22 184.68 L -12.3 184.68 L -12.3 186.67 Q -11.16 184.44 -8.98 184.44 Q -8.69 184.44 -8.36 184.49 L -8.36 186.29 Q -8.86 186.12 -9.24 186.12 Q -11.07 186.12 -12.3 188.29 L -12.3 195.28 Z  M 1.73 194.94 Q -0.2 195.53 -1.58 195.53 Q -3.92 195.53 -5.4 193.97 Q -6.88 192.41 -6.88 189.93 Q -6.88 187.52 -5.58 185.97 Q -4.27 184.43 -2.24 184.43 Q -0.32 184.43 0.73 185.8 Q 1.78 187.17 1.78 189.69 L 1.77 190.28 L -4.92 190.28 Q -4.5 194.06 -1.21 194.06 Q -0.01 194.06 1.73 193.42 Z  M -4.83 188.84 L -0.15 188.84 Q -0.15 185.88 -2.36 185.88 Q -4.57 185.88 -4.83 188.84 Z  M 11.91 199.14 L 11.91 193.29 Q 10.74 195.53 8.38 195.53 Q 6.46 195.53 5.36 194.13 Q 4.26 192.73 4.26 190.31 Q 4.26 187.66 5.51 186.05 Q 6.75 184.44 8.79 184.44 Q 10.67 184.44 11.91 185.89 L 11.91 184.68 L 13.84 184.68 L 13.84 199.14 Z  M 11.91 187.21 Q 10.42 185.89 9.08 185.89 Q 6.31 185.89 6.31 190.12 Q 6.31 193.84 8.78 193.84 Q 10.38 193.84 11.91 192.09 Z  M 24.32 195.28 L 24.32 193.29 Q 22.79 195.53 20.6 195.53 Q 19.21 195.53 18.39 194.65 Q 17.57 193.78 17.57 192.29 L 17.57 184.68 L 19.5 184.68 L 19.5 191.67 Q 19.5 192.86 19.84 193.36 Q 20.19 193.87 21 193.87 Q 22.76 193.87 24.32 191.55 L 24.32 184.68 L 26.25 184.68 L 26.25 195.28 Z  M 37.88 194.94 Q 35.94 195.53 34.57 195.53 Q 32.22 195.53 30.74 193.97 Q 29.26 192.41 29.26 189.93 Q 29.26 187.52 30.57 185.97 Q 31.87 184.43 33.9 184.43 Q 35.83 184.43 36.88 185.8 Q 37.93 187.17 37.93 189.69 L 37.92 190.28 L 31.23 190.28 Q 31.65 194.06 34.93 194.06 Q 36.13 194.06 37.88 193.42 Z  M 31.31 188.84 L 35.99 188.84 Q 35.99 185.88 33.79 185.88 Q 31.57 185.88 31.31 188.84 Z  M 41.25 195.28 L 41.25 184.68 L 43.17 184.68 L 43.17 186.67 Q 44.69 184.44 46.9 184.44 Q 48.28 184.44 49.1 185.32 Q 49.92 186.19 49.92 187.66 L 49.92 195.28 L 47.99 195.28 L 47.99 188.29 Q 47.99 187.11 47.65 186.6 Q 47.3 186.1 46.5 186.1 Q 44.73 186.1 43.17 188.42 L 43.17 195.28 Z  M 57.8 195.53 Q 55.65 195.53 54.23 193.93 Q 52.82 192.34 52.82 189.92 Q 52.82 187.33 54.22 185.89 Q 55.62 184.44 58.13 184.44 Q 59.37 184.44 60.9 184.78 L 60.9 186.39 Q 59.27 185.92 58.25 185.92 Q 56.77 185.92 55.88 187.02 Q 54.99 188.13 54.99 189.98 Q 54.99 191.77 55.9 192.87 Q 56.82 193.97 58.31 193.97 Q 59.62 193.97 61.02 193.3 L 61.02 194.96 Q 59.16 195.53 57.8 195.53 Z  M 64.52 199.14 L 66.24 195.28 L 62.13 184.68 L 64.21 184.68 L 67.25 192.66 L 70.49 184.68 L 72.31 184.68 L 66.52 199.14 Z "/></g><line x1="114.64" y1="31" x2="114.64" y2="343" style="stroke-width: 0.5;stroke: rgb(192,192,192);stroke-opacity: 1.0;stroke-linejoin: bevel;stroke-dasharray: 2.0, 2.0;shape-rendering:crispEdges;" transform="matrix(1,0,0,1,0,0)" clip-path="url(#_68799444603252clip-2)"/><line x1="194.86" y1="31" x2="194.86" y2="343" style="stroke-width: 0.5;stroke: rgb(192,192,192);stroke-opacity: 1.0;stroke-linejoin: bevel;stroke-dasharray: 2.0, 2.0;shape-rendering:crispEdges;" transform="matrix(1,0,0,1,0,0)" clip-path="url(#_68799444603252clip-2)"/><line x1="275.07" y1="31" x2="275.07" y2="343" style="stroke-width: 0.5;stroke: rgb(192,192,192);stroke-opacity: 1.0;stroke-linejoin: bevel;stroke-dasharray: 2.0, 2.0;shape-rendering:crispEdges;" transform="matrix(1,0,0,1,0,0)" clip-path="url(#_68799444603252clip-2)"/><line x1="355.29" y1="31" x2="355.29" y2="343" style="stroke-width: 0.5;stroke: rgb(192,192,192);stroke-opacity: 1.0;stroke-linejoin: bevel;stroke-dasharray: 2.0, 2.0;shape-rendering:crispEdges;" transform="matrix(1,0,0,1,0,0)" clip-path="url(#_68799444603252clip-2)"/><line x1="435.51" y1="31" x2="435.51" y2="343" style="stroke-width: 0.5;stroke: rgb(192,192,192);stroke-opacity: 1.0;stroke-linejoin: bevel;stroke-dasharray: 2.0, 2.0;shape-rendering:crispEdges;" transform="matrix(1,0,0,1,0,0)" clip-path="url(#_68799444603252clip-2)"/><line x1="515.73" y1="31" x2="515.73" y2="343" style="stroke-width: 0.5;stroke: rgb(192,192,192);stroke-opacity: 1.0;stroke-linejoin: bevel;stroke-dasharray: 2.0, 2.0;shape-rendering:crispEdges;" transform="matrix(1,0,0,1,0,0)" clip-path="url(#_68799444603252clip-2)"/><line x1="595.95" y1="31" x2="595.95" y2="343" style="stroke-width: 0.5;stroke: rgb(192,192,192);stroke-opacity: 1.0;stroke-linejoin: bevel;stroke-dasharray: 2.0, 2.0;shape-rendering:crispEdges;" transform="matrix(1,0,0,1,0,0)" clip-path="url(#_68799444603252clip-2)"/><line x1="676.17" y1="31" x2="676.17" y2="343" style="stroke-width: 0.5;stroke: rgb(192,192,192);stroke-opacity: 1.0;stroke-linejoin: bevel;stroke-dasharray: 2.0, 2.0;shape-rendering:crispEdges;" transform="matrix(1,0,0,1,0,0)" clip-path="url(#_68799444603252clip-2)"/><line x1="756.38" y1="31" x2="756.38" y2="343" style="stroke-width: 0.5;stroke: rgb(192,192,192);stroke-opacity: 1.0;stroke-linejoin: bevel;stroke-dasharray: 2.0, 2.0;shape-rendering:crispEdges;" transform="matrix(1,0,0,1,0,0)" clip-path="url(#_68799444603252clip-2)"/><line x1="79" y1="343" x2="792" y2="343" style="stroke-width: 0.5;stroke: rgb(192,192,192);stroke-opacity: 1.0;stroke-linejoin: bevel;stroke-dasharray: 2.0, 2.0;shape-rendering:crispEdges;" transform="matrix(1,0,0,1,0,0)" clip-path="url(#_68799444603252clip-2)"/><line x1="79" y1="296.89" x2="792" y2="296.89" style="stroke-width: 0.5;stroke: rgb(192,192,192);stroke-opacity: 1.0;stroke-linejoin: bevel;stroke-dasharray: 2.0, 2.0;shape-rendering:crispEdges;" transform="matrix(1,0,0,1,0,0)" clip-path="url(#_68799444603252clip-2)"/><line x1="79" y1="250.78" x2="792" y2="250.78" style="stroke-width: 0.5;stroke: rgb(192,192,192);stroke-opacity: 1.0;stroke-linejoin: bevel;stroke-dasharray: 2.0, 2.0;shape-rendering:crispEdges;" transform="matrix(1,0,0,1,0,0)" clip-path="url(#_68799444603252clip-2)"/><line x1="79" y1="204.67" x2="792" y2="204.67" style="stroke-width: 0.5;stroke: rgb(192,192,192);stroke-opacity: 1.0;stroke-linejoin: bevel;stroke-dasharray: 2.0, 2.0;shape-rendering:crispEdges;" transform="matrix(1,0,0,1,0,0)" clip-path="url(#_68799444603252clip-2)"/><line x1="79" y1="158.55" x2="792" y2="158.55" style="stroke-width: 0.5;stroke: rgb(192,192,192);stroke-opacity: 1.0;stroke-linejoin: bevel;stroke-dasharray: 2.0, 2.0;shape-rendering:crispEdges;" transform="matrix(1,0,0,1,0,0)" clip-path="url(#_68799444603252clip-2)"/><line x1="79" y1="112.44" x2="792" y2="112.44" style="stroke-width: 0.5;stroke: rgb(192,192,192);stroke-opacity: 1.0;stroke-linejoin: bevel;stroke-dasharray: 2.0, 2.0;shape-rendering:crispEdges;" transform="matrix(1,0,0,1,0,0)" clip-path="url(#_68799444603252clip-2)"/><line x1="79" y1="66.33" x2="792" y2="66.33" style="stroke-width: 0.5;stroke: rgb(192,192,192);stroke-opacity: 1.0;stroke-linejoin: bevel;stroke-dasharray: 2.0, 2.0;shape-rendering:crispEdges;" transform="matrix(1,0,0,1,0,0)" clip-path="url(#_68799444603252clip-2)"/><g style="fill: rgb(192,192,192); fill-opacity: 1.0; stroke: none" transform="matrix(1,0,0,1,0,0)" clip-path="url(#_68799444603252clip-2)"><path d="M 111.41 343 L 111.41 342.63 L 117.89 342.91 L 124.37 342.82 L 130.85 342.82 L 137.34 342.72 L 143.82 342.54 L 150.3 342.54 L 156.78 342.26 L 163.26 342.08 L 169.75 341.71 L 176.23 341.43 L 182.71 340.88 L 189.19 340.33 L 195.67 339.59 L 202.15 338.57 L 208.64 337.65 L 215.12 336.18 L 221.6 334.52 L 228.08 332.39 L 234.56 330.09 L 241.05 327.23 L 247.53 323.82 L 254.01 320.04 L 260.49 315.52 L 266.97 310.17 L 273.45 304.45 L 279.94 297.53 L 286.42 290.06 L 292.9 281.67 L 299.38 272.63 L 305.86 262.4 L 312.35 251.42 L 318.83 239.8 L 325.31 227.26 L 331.79 214.07 L 338.27 200.42 L 344.75 186.22 L 351.24 171.93 L 357.72 157.08 L 364.2 142.78 L 370.68 128.58 L 377.16 114.93 L 383.65 101.74 L 390.13 89.66 L 396.61 78.87 L 403.09 69.01 L 409.57 61.07 L 416.05 54.34 L 422.54 49.55 L 429.02 46.87 L 435.5 45.86 L 441.98 46.69 L 448.46 49.64 L 454.95 54.34 L 461.43 60.98 L 467.91 69.01 L 474.39 78.6 L 480.87 89.76 L 487.35 101.93 L 493.84 114.66 L 500.32 128.49 L 506.8 142.69 L 513.28 157.45 L 519.76 171.56 L 526.25 186.31 L 532.73 200.24 L 539.21 214.07 L 545.69 227.17 L 552.17 239.71 L 558.65 251.42 L 565.14 262.58 L 571.62 272.45 L 578.1 281.67 L 584.58 290.16 L 591.06 297.44 L 597.55 304.45 L 604.03 310.17 L 610.51 315.33 L 616.99 320.04 L 623.47 323.91 L 629.95 327.32 L 636.44 330 L 642.92 332.49 L 649.4 334.52 L 655.88 336.18 L 662.36 337.56 L 668.85 338.67 L 675.33 339.59 L 681.81 340.23 L 688.29 340.97 L 694.77 341.34 L 701.25 341.89 L 707.74 341.99 L 714.22 342.35 L 720.7 342.45 L 727.18 342.63 L 733.66 342.72 L 740.15 342.82 L 746.63 342.72 L 753.11 343 L 759.59 342.72 L 759.59 343 Z "/></g><g style="stroke-width: 1.0;stroke: rgb(64,64,64);stroke-opacity: 1.0;stroke-linecap: square;shape-rendering:geometricPrecision;; fill: none" transform="matrix(1,0,0,1,0,0)" clip-path="url(#_68799444603252clip-2)"><path d="M 111.41 343 L 111.41 342.63 L 117.89 342.91 L 124.37 342.82 L 130.85 342.82 L 137.34 342.72 L 143.82 342.54 L 150.3 342.54 L 156.78 342.26 L 163.26 342.08 L 169.75 341.71 L 176.23 341.43 L 182.71 340.88 L 189.19 340.33 L 195.67 339.59 L 202.15 338.57 L 208.64 337.65 L 215.12 336.18 L 221.6 334.52 L 228.08 332.39 L 234.56 330.09 L 241.05 327.23 L 247.53 323.82 L 254.01 320.04 L 260.49 315.52 L 266.97 310.17 L 273.45 304.45 L 279.94 297.53 L 286.42 290.06 L 292.9 281.67 L 299.38 272.63 L 305.86 262.4 L 312.35 251.42 L 318.83 239.8 L 325.31 227.26 L 331.79 214.07 L 338.27 200.42 L 344.75 186.22 L 351.24 171.93 L 357.72 157.08 L 364.2 142.78 L 370.68 128.58 L 377.16 114.93 L 383.65 101.74 L 390.13 89.66 L 396.61 78.87 L 403.09 69.01 L 409.57 61.07 L 416.05 54.34 L 422.54 49.55 L 429.02 46.87 L 435.5 45.86 L 441.98 46.69 L 448.46 49.64 L 454.95 54.34 L 461.43 60.98 L 467.91 69.01 L 474.39 78.6 L 480.87 89.76 L 487.35 101.93 L 493.84 114.66 L 500.32 128.49 L 506.8 142.69 L 513.28 157.45 L 519.76 171.56 L 526.25 186.31 L 532.73 200.24 L 539.21 214.07 L 545.69 227.17 L 552.17 239.71 L 558.65 251.42 L 565.14 262.58 L 571.62 272.45 L 578.1 281.67 L 584.58 290.16 L 591.06 297.44 L 597.55 304.45 L 604.03 310.17 L 610.51 315.33 L 616.99 320.04 L 623.47 323.91 L 629.95 327.32 L 636.44 330 L 642.92 332.49 L 649.4 334.52 L 655.88 336.18 L 662.36 337.56 L 668.85 338.67 L 675.33 339.59 L 681.81 340.23 L 688.29 340.97 L 694.77 341.34 L 701.25 341.89 L 707.74 341.99 L 714.22 342.35 L 720.7 342.45 L 727.18 342.63 L 733.66 342.72 L 740.15 342.82 L 746.63 342.72 L 753.11 343 L 759.59 342.72 L 759.59 343 Z "/></g><rect x="79" y="31" width="713" height="312" style="stroke-width: 0.5;stroke: rgb(128,128,128);stroke-opacity: 1.0;stroke-linecap: round;stroke-linejoin: round;shape-rendering:crispEdges;; fill: none" transform="matrix(1,0,0,1,0,0)" clip-path="url(#_68799444603252clip-0)"/></svg>
