<!DOCTYPE svg PUBLIC "-//W3C//DTD SVG 1.1//EN" "http://www.w3.org/Graphics/SVG/1.1/DTD/svg11.dtd">
<svg xmlns="http://www.w3.org/2000/svg" xmlns:xlink="http://www.w3.org/1999/xlink" xmlns:jfreesvg="http://www.jfree.org/jfreesvg/svg" width="800" height="400" text-rendering="auto" shape-rendering="auto">
<defs><clipPath id="_68780240996059clip-0"><path d="M 0 0 L 800 0 L 800 400 L 0 400 L 0 0 Z "/></clipPath>
<clipPath id="_68780240996059clip-1"><path d="M 210.5 163.5 L 210.5 963.5 L -189.5 963.5 L -189.5 163.5 L 210.5 163.5 Z "/></clipPath>
<clipPath id="_68780240996059clip-2"><path d="M 79 31 L 79 343 L 792 343 L 792 31 Z "/></clipPath>
</defs>
<rect x="0" y="0" width="800" height="400" style="fill: rgb(250,250,250); fill-opacity: 1.0" transform="matrix(1,0,0,1,0,0)" clip-path="url(#_68780240996059clip-0)"/><g transform="matrix(1,0,0,1,0,0)"><text x="264" y="20.34" style="fill: rgb(0,0,0); fill-opacity: 1.0; font-family: sans-serif; font-size: 20px;" clip-path="url(#_68780240996059clip-0)">Uniform from VanDerCorput</text></g><rect x="79" y="31" width="713" height="312" style="fill: rgb(255,255,255); fill-opacity: 1.0" transform="matrix(1,0,0,1,0,0)" clip-path="url(#_68780240996059clip-0)"/><line x1="79" y1="343" x2="792" y2="343" style="stroke-width: 0.5;stroke: rgb(128,128,128);stroke-opacity: 1.0;stroke-linecap: square;shape-rendering:crispEdges;" transform="matrix(1,0,0,1,0,0)" clip-path="url(#_68780240996059clip-0)"/><g transform="matrix(1,0,0,1,0,0)"><text x="115.35" y="361.5" style="fill: rgb(0,0,0); fill-opacity: 1.0; font-family: serif; font-size: 18px;" clip-path="url(#_68780240996059clip-0)">-0.6</text></g><line x1="129.85" y1="345" x2="129.85" y2="343" style="stroke-width: 0.5;stroke: rgb(128,128,128);stroke-opacity: 1.0;stroke-linecap: square;shape-rendering:crispEdges;" transform="matrix(1,0,0,1,0,0)" clip-path="url(#_68780240996059clip-0)"/><g transform="matrix(1,0,0,1,0,0)"><text x="170.93" y="361.5" style="fill: rgb(0,0,0); fill-opacity: 1.0; font-family: serif; font-size: 18px;" clip-path="url(#_68780240996059clip-0)">-0.4</text></g><line x1="185.43" y1="345" x2="185.43" y2="343" style="stroke-width: 0.5;stroke: rgb(128,128,128);stroke-opacity: 1.0;stroke-linecap: square;shape-rendering:crispEdges;" transform="matrix(1,0,0,1,0,0)" clip-path="url(#_68780240996059clip-0)"/><g transform="matrix(1,0,0,1,0,0)"><text x="226.5" y="361.5" style="fill: rgb(0,0,0); fill-opacity: 1.0; font-family: serif; font-size: 18px;" clip-path="url(#_68780240996059clip-0)">-0.2</text></g><line x1="241" y1="345" x2="241" y2="343" style="stroke-width: 0.5;stroke: rgb(128,128,128);stroke-opacity: 1.0;stroke-linecap: square;shape-rendering:crispEdges;" transform="matrix(1,0,0,1,0,0)" clip-path="url(#_68780240996059clip-0)"/><g transform="matrix(1,0,0,1,0,0)"><text x="292.07" y="361.5" style="fill: rgb(0,0,0); fill-opacity: 1.0; font-family: serif; font-size: 18px;" clip-path="url(#_68780240996059clip-0)">0</text></g><line x1="296.57" y1="345" x2="296.57" y2="343" style="stroke-width: 0.5;stroke: rgb(128,128,128);stroke-opacity: 1.0;stroke-linecap: square;shape-rendering:crispEdges;" transform="matrix(1,0,0,1,0,0)" clip-path="url(#_68780240996059clip-0)"/><g transform="matrix(1,0,0,1,0,0)"><text x="340.65" y="361.5" style="fill: rgb(0,0,0); fill-opacity: 1.0; font-family: serif; font-size: 18px;" clip-path="url(#_68780240996059clip-0)">0.2</text></g><line x1="352.15" y1="345" x2="352.15" y2="343" style="stroke-width: 0.5;stroke: rgb(128,128,128);stroke-opacity: 1.0;stroke-linecap: square;shape-rendering:crispEdges;" transform="matrix(1,0,0,1,0,0)" clip-path="url(#_68780240996059clip-0)"/><g transform="matrix(1,0,0,1,0,0)"><text x="396.22" y="361.5" style="fill: rgb(0,0,0); fill-opacity: 1.0; font-family: serif; font-size: 18px;" clip-path="url(#_68780240996059clip-0)">0.4</text></g><line x1="407.72" y1="345" x2="407.72" y2="343" style="stroke-width: 0.5;stroke: rgb(128,128,128);stroke-opacity: 1.0;stroke-linecap: square;shape-rendering:crispEdges;" transform="matrix(1,0,0,1,0,0)" clip-path="url(#_68780240996059clip-0)"/><g transform="matrix(1,0,0,1,0,0)"><text x="451.79" y="361.5" style="fill: rgb(0,0,0); fill-opacity: 1.0; font-family: serif; font-size: 18px;" clip-path="url(#_68780240996059clip-0)">0.6</text></g><line x1="463.29" y1="345" x2="463.29" y2="343" style="stroke-width: 0.5;stroke: rgb(128,128,128);stroke-opacity: 1.0;stroke-linecap: square;shape-rendering:crispEdges;" transform="matrix(1,0,0,1,0,0)" clip-path="url(#_68780240996059clip-0)"/><g transform="matrix(1,0,0,1,0,0)"><text x="507.37" y="361.5" style="fill: rgb(0,0,0); fill-opacity: 1.0; font-family: serif; font-size: 18px;" clip-path="url(#_68780240996059clip-0)">0.8</text></g><line x1="518.87" y1="345" x2="518.87" y2="343" style="stroke-width: 0.5;stroke: rgb(128,128,128);stroke-opacity: 1.0;stroke-linecap: square;shape-rendering:crispEdges;" transform="matrix(1,0,0,1,0,0)" clip-path="url(#_68780240996059clip-0)"/><g transform="matrix(1,0,0,1,0,0)"><text x="569.94" y="361.5" style="fill: rgb(0,0,0); fill-opacity: 1.0; font-family: serif; font-size: 18px;" clip-path="url(#_68780240996059clip-0)">1</text></g><line x1="574.44" y1="345" x2="574.44" y2="343" style="stroke-width: 0.5;stroke: rgb(128,128,128);stroke-opacity: 1.0;stroke-linecap: square;shape-rendering:crispEdges;" transform="matrix(1,0,0,1,0,0)" clip-path="url(#_68780240996059clip-0)"/><g transform="matrix(1,0,0,1,0,0)"><text x="618.51" y="361.5" style="fill: rgb(0,0,0); fill-opacity: 1.0; font-family: serif; font-size: 18px;" clip-path="url(#_68780240996059clip-0)">1.2</text></g><line x1="630.01" y1="345" x2="630.01" y2="343" style="stroke-width: 0.5;stroke: rgb(128,128,128);stroke-opacity: 1.0;stroke-linecap: square;shape-rendering:crispEdges;" transform="matrix(1,0,0,1,0,0)" clip-path="url(#_68780240996059clip-0)"/><g transform="matrix(1,0,0,1,0,0)"><text x="674.08" y="361.5" style="fill: rgb(0,0,0); fill-opacity: 1.0; font-family: serif; font-size: 18px;" clip-path="url(#_68780240996059clip-0)">1.4</text></g><line x1="685.58" y1="345" x2="685.58" y2="343" style="stroke-width: 0.5;stroke: rgb(128,128,128);stroke-opacity: 1.0;stroke-linecap: square;shape-rendering:crispEdges;" transform="matrix(1,0,0,1,0,0)" clip-path="url(#_68780240996059clip-0)"/><g transform="matrix(1,0,0,1,0,0)"><text x="729.66" y="361.5" style="fill: rgb(0,0,0); fill-opacity: 1.0; font-family: serif; font-size: 18px;" clip-path="url(#_68780240996059clip-0)">1.6</text></g><line x1="741.16" y1="345" x2="741.16" y2="343" style="stroke-width: 0.5;stroke: rgb(128,128,128);stroke-opacity: 1.0;stroke-linecap: square;shape-rendering:crispEdges;" transform="matrix(1,0,0,1,0,0)" clip-path="url(#_68780240996059clip-0)"/><g transform="matrix(1,0,0,1,0,0)"><text x="405.5" y="388.78" style="fill: rgb(0,0,0); fill-opacity: 1.0; font-family: sans-serif; font-size: 20px;" clip-path="url(#_68780240996059clip-0)">values</text></g><line x1="79" y1="31" x2="79" y2="343" style="stroke-width: 0.5;stroke: rgb(128,128,128);stroke-opacity: 1.0;stroke-linecap: square;shape-rendering:crispEdges;" transform="matrix(1,0,0,1,0,0)" clip-path="url(#_68780240996059clip-0)"/><g transform="matrix(1,0,0,1,0,0)"><text x="64" y="348" style="fill: rgb(0,0,0); fill-opacity: 1.0; font-family: serif; font-size: 18px;" clip-path="url(#_68780240996059clip-0)">0</text></g><line x1="77" y1="343" x2="79" y2="343" style="stroke-width: 0.5;stroke: rgb(128,128,128);stroke-opacity: 1.0;stroke-linecap: square;shape-rendering:crispEdges;" transform="matrix(1,0,0,1,0,0)" clip-path="url(#_68780240996059clip-0)"/><g transform="matrix(1,0,0,1,0,0)"><text x="64" y="322.54" style="fill: rgb(0,0,0); fill-opacity: 1.0; font-family: serif; font-size: 18px;" clip-path="url(#_68780240996059clip-0)">0</text></g><line x1="77" y1="317.54" x2="79" y2="317.54" style="stroke-width: 0.5;stroke: rgb(128,128,128);stroke-opacity: 1.0;stroke-linecap: square;shape-rendering:crispEdges;" transform="matrix(1,0,0,1,0,0)" clip-path="url(#_68780240996059clip-0)"/><g transform="matrix(1,0,0,1,0,0)"><text x="64" y="297.08" style="fill: rgb(0,0,0); fill-opacity: 1.0; font-family: serif; font-size: 18px;" clip-path="url(#_68780240996059clip-0)">0</text></g><line x1="77" y1="292.08" x2="79" y2="292.08" style="stroke-width: 0.5;stroke: rgb(128,128,128);stroke-opacity: 1.0;stroke-linecap: square;shape-rendering:crispEdges;" transform="matrix(1,0,0,1,0,0)" clip-path="url(#_68780240996059clip-0)"/><g transform="matrix(1,0,0,1,0,0)"><text x="41" y="271.61" style="fill: rgb(0,0,0); fill-opacity: 1.0; font-family: serif; font-size: 18px;" clip-path="url(#_68780240996059clip-0)">0.01</text></g><line x1="77" y1="266.61" x2="79" y2="266.61" style="stroke-width: 0.5;stroke: rgb(128,128,128);stroke-opacity: 1.0;stroke-linecap: square;shape-rendering:crispEdges;" transform="matrix(1,0,0,1,0,0)" clip-path="url(#_68780240996059clip-0)"/><g transform="matrix(1,0,0,1,0,0)"><text x="41" y="246.15" style="fill: rgb(0,0,0); fill-opacity: 1.0; font-family: serif; font-size: 18px;" clip-path="url(#_68780240996059clip-0)">0.01</text></g><line x1="77" y1="241.15" x2="79" y2="241.15" style="stroke-width: 0.5;stroke: rgb(128,128,128);stroke-opacity: 1.0;stroke-linecap: square;shape-rendering:crispEdges;" transform="matrix(1,0,0,1,0,0)" clip-path="url(#_68780240996059clip-0)"/><g transform="matrix(1,0,0,1,0,0)"><text x="41" y="220.69" style="fill: rgb(0,0,0); fill-opacity: 1.0; font-family: serif; font-size: 18px;" clip-path="url(#_68780240996059clip-0)">0.01</text></g><line x1="77" y1="215.69" x2="79" y2="215.69" style="stroke-width: 0.5;stroke: rgb(128,128,128);stroke-opacity: 1.0;stroke-linecap: square;shape-rendering:crispEdges;" transform="matrix(1,0,0,1,0,0)" clip-path="url(#_68780240996059clip-0)"/><g transform="matrix(1,0,0,1,0,0)"><text x="41" y="195.23" style="fill: rgb(0,0,0); fill-opacity: 1.0; font-family: serif; font-size: 18px;" clip-path="url(#_68780240996059clip-0)">0.01</text></g><line x1="77" y1="190.23" x2="79" y2="190.23" style="stroke-width: 0.5;stroke: rgb(128,128,128);stroke-opacity: 1.0;stroke-linecap: square;shape-rendering:crispEdges;" transform="matrix(1,0,0,1,0,0)" clip-path="url(#_68780240996059clip-0)"/><g transform="matrix(1,0,0,1,0,0)"><text x="41" y="169.77" style="fill: rgb(0,0,0); fill-opacity: 1.0; font-family: serif; font-size: 18px;" clip-path="url(#_68780240996059clip-0)">0.01</text></g><line x1="77" y1="164.77" x2="79" y2="164.77" style="stroke-width: 0.5;stroke: rgb(128,128,128);stroke-opacity: 1.0;stroke-linecap: square;shape-rendering:crispEdges;" transform="matrix(1,0,0,1,0,0)" clip-path="url(#_68780240996059clip-0)"/><g transform="matrix(1,0,0,1,0,0)"><text x="41" y="144.3" style="fill: rgb(0,0,0); fill-opacity: 1.0; font-family: serif; font-size: 18px;" clip-path="url(#_68780240996059clip-0)">0.02</text></g><line x1="77" y1="139.3" x2="79" y2="139.3" style="stroke-width: 0.5;stroke: rgb(128,128,128);stroke-opacity: 1.0;stroke-linecap: square;shape-rendering:crispEdges;" transform="matrix(1,0,0,1,0,0)" clip-path="url(#_68780240996059clip-0)"/><g transform="matrix(1,0,0,1,0,0)"><text x="41" y="118.84" style="fill: rgb(0,0,0); fill-opacity: 1.0; font-family: serif; font-size: 18px;" clip-path="url(#_68780240996059clip-0)">0.02</text></g><line x1="77" y1="113.84" x2="79" y2="113.84" style="stroke-width: 0.5;stroke: rgb(128,128,128);stroke-opacity: 1.0;stroke-linecap: square;shape-rendering:crispEdges;" transform="matrix(1,0,0,1,0,0)" clip-path="url(#_68780240996059clip-0)"/><g transform="matrix(1,0,0,1,0,0)"><text x="41" y="93.38" style="fill: rgb(0,0,0); fill-opacity: 1.0; font-family: serif; font-size: 18px;" clip-path="url(#_68780240996059clip-0)">0.02</text></g><line x1="77" y1="88.38" x2="79" y2="88.38" style="stroke-width: 0.5;stroke: rgb(128,128,128);stroke-opacity: 1.0;stroke-linecap: square;shape-rendering:crispEdges;" transform="matrix(1,0,0,1,0,0)" clip-path="url(#_68780240996059clip-0)"/><g transform="matrix(1,0,0,1,0,0)"><text x="41" y="67.92" style="fill: rgb(0,0,0); fill-opacity: 1.0; font-family: serif; font-size: 18px;" clip-path="url(#_68780240996059clip-0)">0.02</text></g><line x1="77" y1="62.92" x2="79" y2="62.92" style="stroke-width: 0.5;stroke: rgb(128,128,128);stroke-opacity: 1.0;stroke-linecap: square;shape-rendering:crispEdges;" transform="matrix(1,0,0,1,0,0)" clip-path="url(#_68780240996059clip-0)"/><g transform="matrix(1,0,0,1,0,0)"><text x="41" y="42.45" style="fill: rgb(0,0,0); fill-opacity: 1.0; font-family: serif; font-size: 18px;" clip-path="url(#_68780240996059clip-0)">0.02</text></g><line x1="77" y1="37.45" x2="79" y2="37.45" style="stroke-width: 0.5;stroke: rgb(128,128,128);stroke-opacity: 1.0;stroke-linecap: square;shape-rendering:crispEdges;" transform="matrix(1,0,0,1,0,0)" clip-path="url(#_68780240996059clip-0)"/><g style="fill: rgb(0,0,0); fill-opacity: 1.0; stroke: none" transform="matrix(0,-1,1,0,-163.5,210.5)" clip-path="url(#_68780240996059clip-1)"><path d="M -19.28 186.12 L -19.28 195.28 L -21.21 195.28 L -21.21 186.12 L -22.72 186.12 L -22.72 184.68 L -21.21 184.68 L -21.21 183.41 Q -21.21 179.62 -17.76 179.62 Q -16.79 179.62 -15.56 179.94 L -15.56 181.46 Q -16.86 181.06 -17.64 181.06 Q -18.59 181.06 -18.93 181.52 Q -19.28 181.97 -19.28 183.2 L -19.28 184.68 L -16.63 184.68 L -16.63 186.12 Z  M -14.22 195.28 L -14.22 184.68 L -12.3 184.68 L -12.3 186.67 Q -11.16 184.44 -8.98 184.44 Q -8.69 184.44 -8.36 184.49 L -8.36 186.29 Q -8.86 186.12 -9.24 186.12 Q -11.07 186.12 -12.3 188.29 L -12.3 195.28 Z  M 1.73 194.94 Q -0.2 195.53 -1.58 195.53 Q -3.92 195.53 -5.4 193.97 Q -6.88 192.41 -6.88 189.93 Q -6.88 187.52 -5.58 185.97 Q -4.27 184.43 -2.24 184.43 Q -0.32 184.43 0.73 185.8 Q 1.78 187.17 1.78 189.69 L 1.77 190.28 L -4.92 190.28 Q -4.5 194.06 -1.21 194.06 Q -0.01 194.06 1.73 193.42 Z  M -4.83 188.84 L -0.15 188.84 Q -0.15 185.88 -2.36 185.88 Q -4.57 185.88 -4.83 188.84 Z  M 11.91 199.14 L 11.91 193.29 Q 10.74 195.53 8.38 195.53 Q 6.46 195.53 5.36 194.13 Q 4.26 192.73 4.26 190.31 Q 4.26 187.66 5.51 186.05 Q 6.75 184.44 8.79 184.44 Q 10.67 184.44 11.91 185.89 L 11.91 184.68 L 13.84 184.68 L 13.84 199.14 Z  M 11.91 187.21 Q 10.42 185.89 9.08 185.89 Q 6.31 185.89 6.31 190.12 Q 6.31 193.84 8.78 193.84 Q 10.38 193.84 11.91 192.09 Z  M 24.32 195.28 L 24.32 193.29 Q 22.79 195.53 20.6 195.53 Q 19.21 195.53 18.39 194.65 Q 17.57 193.78 17.57 192.29 L 17.57 184.68 L 19.5 184.68 L 19.5 191.67 Q 19.5 192.86 19.84 193.36 Q 20.19 193.87 21 193.87 Q 22.76 193.87 24.32 191.55 L 24.32 184.68 L 26.25 184.68 L 26.25 195.28 Z  M 37.88 194.94 Q 35.94 195.53 34.57 195.53 Q 32.22 195.53 30.74 193.97 Q 29.26 192.41 29.26 189.93 Q 29.26 187.52 30.57 185.97 Q 31.87 184.43 33.9 184.43 Q 35.83 184.43 36.88 185.8 Q 37.93 187.17 37.93 189.69 L 37.92 190.28 L 31.23 190.28 Q 31.65 194.06 34.93 194.06 Q 36.13 194.06 37.88 193.42 Z  M 31.31 188.84 L 35.99 188.84 Q 35.99 185.88 33.79 185.88 Q 31.57 185.88 31.31 188.84 Z  M 41.25 195.28 L 41.25 184.68 L 43.17 184.68 L 43.17 186.67 Q 44.69 184.44 46.9 184.44 Q 48.28 184.44 49.1 185.32 Q 49.92 186.19 49.92 187.66 L 49.92 195.28 L 47.99 195.28 L 47.99 188.29 Q 47.99 187.11 47.65 186.6 Q 47.3 186.1 46.5 186.1 Q 44.73 186.1 43.17 188.42 L 43.17 195.28 Z  M 57.8 195.53 Q 55.65 195.53 54.23 193.93 Q 52.82 192.34 52.82 189.92 Q 52.82 187.33 54.22 185.89 Q 55.62 184.44 58.13 184.44 Q 59.37 184.44 60.9 184.78 L 60.9 186.39 Q 59.27 185.92 58.25 185.92 Q 56.77 185.92 55.88 187.02 Q 54.99 188.13 54.99 189.98 Q 54.99 191.77 55.9 192.87 Q 56.82 193.97 58.31 193.97 Q 59.62 193.97 61.02 193.3 L 61.02 194.96 Q 59.16 195.53 57.8 195.53 Z  M 64.52 199.14 L 66.24 195.28 L 62.13 184.68 L 64.21 184.68 L 67.25 192.66 L 70.49 184.68 L 72.31 184.68 L 66.52 199.14 Z "/></g><line x1="129.85" y1="31" x2="129.85" y2="343" style="stroke-width: 0.5;stroke: rgb(192,192,192);stroke-opacity: 1.0;stroke-linejoin: bevel;stroke-dasharray: 2.0, 2.0;shape-rendering:crispEdges;" transform="matrix(1,0,0,1,0,0)" clip-path="url(#_68780240996059clip-2)"/><line x1="185.43" y1="31" x2="185.43" y2="343" style="stroke-width: 0.5;stroke: rgb(192,192,192);stroke-opacity: 1.0;stroke-linejoin: bevel;stroke-dasharray: 2.0, 2.0;shape-rendering:crispEdges;" transform="matrix(1,0,0,1,0,0)" clip-path="url(#_68780240996059clip-2)"/><line x1="241" y1="31" x2="241" y2="343" style="stroke-width: 0.5;stroke: rgb(192,192,192);stroke-opacity: 1.0;stroke-linejoin: bevel;stroke-dasharray: 2.0, 2.0;shape-rendering:crispEdges;" transform="matrix(1,0,0,1,0,0)" clip-path="url(#_68780240996059clip-2)"/><line x1="296.57" y1="31" x2="296.57" y2="343" style="stroke-width: 0.5;stroke: rgb(192,192,192);stroke-opacity: 1.0;stroke-linejoin: bevel;stroke-dasharray: 2.0, 2.0;shape-rendering:crispEdges;" transform="matrix(1,0,0,1,0,0)" clip-path="url(#_68780240996059clip-2)"/><line x1="352.15" y1="31" x2="352.15" y2="343" style="stroke-width: 0.5;stroke: rgb(192,192,192);stroke-opacity: 1.0;stroke-linejoin: bevel;stroke-dasharray: 2.0, 2.0;shape-rendering:crispEdges;" transform="matrix(1,0,0,1,0,0)" clip-path="url(#_68780240996059clip-2)"/><line x1="407.72" y1="31" x2="407.72" y2="343" style="stroke-width: 0.5;stroke: rgb(192,192,192);stroke-opacity: 1.0;stroke-linejoin: bevel;stroke-dasharray: 2.0, 2.0;shape-rendering:crispEdges;" transform="matrix(1,0,0,1,0,0)" clip-path="url(#_68780240996059clip-2)"/><line x1="463.29" y1="31" x2="463.29" y2="343" style="stroke-width: 0.5;stroke: rgb(192,192,192);stroke-opacity: 1.0;stroke-linejoin: bevel;stroke-dasharray: 2.0, 2.0;shape-rendering:crispEdges;" transform="matrix(1,0,0,1,0,0)" clip-path="url(#_68780240996059clip-2)"/><line x1="518.87" y1="31" x2="518.87" y2="343" style="stroke-width: 0.5;stroke: rgb(192,192,192);stroke-opacity: 1.0;stroke-linejoin: bevel;stroke-dasharray: 2.0, 2.0;shape-rendering:crispEdges;" transform="matrix(1,0,0,1,0,0)" clip-path="url(#_68780240996059clip-2)"/><line x1="574.44" y1="31" x2="574.44" y2="343" style="stroke-width: 0.5;stroke: rgb(192,192,192);stroke-opacity: 1.0;stroke-linejoin: bevel;stroke-dasharray: 2.0, 2.0;shape-rendering:crispEdges;" transform="matrix(1,0,0,1,0,0)" clip-path="url(#_68780240996059clip-2)"/><line x1="630.01" y1="31" x2="630.01" y2="343" style="stroke-width: 0.5;stroke: rgb(192,192,192);stroke-opacity: 1.0;stroke-linejoin: bevel;stroke-dasharray: 2.0, 2.0;shape-rendering:crispEdges;" transform="matrix(1,0,0,1,0,0)" clip-path="url(#_68780240996059clip-2)"/><line x1="685.58" y1="31" x2="685.58" y2="343" style="stroke-width: 0.5;stroke: rgb(192,192,192);stroke-opacity: 1.0;stroke-linejoin: bevel;stroke-dasharray: 2.0, 2.0;shape-rendering:crispEdges;" transform="matrix(1,0,0,1,0,0)" clip-path="url(#_68780240996059clip-2)"/><line x1="741.16" y1="31" x2="741.16" y2="343" style="stroke-width: 0.5;stroke: rgb(192,192,192);stroke-opacity: 1.0;stroke-linejoin: bevel;stroke-dasharray: 2.0, 2.0;shape-rendering:crispEdges;" transform="matrix(1,0,0,1,0,0)" clip-path="url(#_68780240996059clip-2)"/><line x1="79" y1="343" x2="792" y2="343" style="stroke-width: 0.5;stroke: rgb(192,192,192);stroke-opacity: 1.0;stroke-linejoin: bevel;stroke-dasharray: 2.0, 2.0;shape-rendering:crispEdges;" transform="matrix(1,0,0,1,0,0)" clip-path="url(#_68780240996059clip-2)"/><line x1="79" y1="317.54" x2="792" y2="317.54" style="stroke-width: 0.5;stroke: rgb(192,192,192);stroke-opacity: 1.0;stroke-linejoin: bevel;stroke-dasharray: 2.0, 2.0;shape-rendering:crispEdges;" transform="matrix(1,0,0,1,0,0)" clip-path="url(#_68780240996059clip-2)"/><line x1="79" y1="292.08" x2="792" y2="292.08" style="stroke-width: 0.5;stroke: rgb(192,192,192);stroke-opacity: 1.0;stroke-linejoin: bevel;stroke-dasharray: 2.0, 2.0;shape-rendering:crispEdges;" transform="matrix(1,0,0,1,0,0)" clip-path="url(#_68780240996059clip-2)"/><line x1="79" y1="266.61" x2="792" y2="266.61" style="stroke-width: 0.5;stroke: rgb(192,192,192);stroke-opacity: 1.0;stroke-linejoin: bevel;stroke-dasharray: 2.0, 2.0;shape-rendering:crispEdges;" transform="matrix(1,0,0,1,0,0)" clip-path="url(#_68780240996059clip-2)"/><line x1="79" y1="241.15" x2="792" y2="241.15" style="stroke-width: 0.5;stroke: rgb(192,192,192);stroke-opacity: 1.0;stroke-linejoin: bevel;stroke-dasharray: 2.0, 2.0;shape-rendering:crispEdges;" transform="matrix(1,0,0,1,0,0)" clip-path="url(#_68780240996059clip-2)"/><line x1="79" y1="215.69" x2="792" y2="215.69" style="stroke-width: 0.5;stroke: rgb(192,192,192);stroke-opacity: 1.0;stroke-linejoin: bevel;stroke-dasharray: 2.0, 2.0;shape-rendering:crispEdges;" transform="matrix(1,0,0,1,0,0)" clip-path="url(#_68780240996059clip-2)"/><line x1="79" y1="190.23" x2="792" y2="190.23" style="stroke-width: 0.5;stroke: rgb(192,192,192);stroke-opacity: 1.0;stroke-linejoin: bevel;stroke-dasharray: 2.0, 2.0;shape-rendering:crispEdges;" transform="matrix(1,0,0,1,0,0)" clip-path="url(#_68780240996059clip-2)"/><line x1="79" y1="164.77" x2="792" y2="164.77" style="stroke-width: 0.5;stroke: rgb(192,192,192);stroke-opacity: 1.0;stroke-linejoin: bevel;stroke-dasharray: 2.0, 2.0;shape-rendering:crispEdges;" transform="matrix(1,0,0,1,0,0)" clip-path="url(#_68780240996059clip-2)"/><line x1="79" y1="139.3" x2="792" y2="139.3" style="stroke-width: 0.5;stroke: rgb(192,192,192);stroke-opacity: 1.0;stroke-linejoin: bevel;stroke-dasharray: 2.0, 2.0;shape-rendering:crispEdges;" transform="matrix(1,0,0,1,0,0)" clip-path="url(#_68780240996059clip-2)"/><line x1="79" y1="113.84" x2="792" y2="113.84" style="stroke-width: 0.5;stroke: rgb(192,192,192);stroke-opacity: 1.0;stroke-linejoin: bevel;stroke-dasharray: 2.0, 2.0;shape-rendering:crispEdges;" transform="matrix(1,0,0,1,0,0)" clip-path="url(#_68780240996059clip-2)"/><line x1="79" y1="88.38" x2="792" y2="88.38" style="stroke-width: 0.5;stroke: rgb(192,192,192);stroke-opacity: 1.0;stroke-linejoin: bevel;stroke-dasharray: 2.0, 2.0;shape-rendering:crispEdges;" transform="matrix(1,0,0,1,0,0)" clip-path="url(#_68780240996059clip-2)"/><line x1="79" y1="62.92" x2="792" y2="62.92" style="stroke-width: 0.5;stroke: rgb(192,192,192);stroke-opacity: 1.0;stroke-linejoin: bevel;stroke-dasharray: 2.0, 2.0;shape-rendering:crispEdges;" transform="matrix(1,0,0,1,0,0)" clip-path="url(#_68780240996059clip-2)"/><line x1="79" y1="37.45" x2="792" y2="37.45" style="stroke-width: 0.5;stroke: rgb(192,192,192);stroke-opacity: 1.0;stroke-linejoin: bevel;stroke-dasharray: 2.0, 2.0;shape-rendering:crispEdges;" transform="matrix(1,0,0,1,0,0)" clip-path="url(#_68780240996059clip-2)"/><g style="fill: rgb(192,192,192); fill-opacity: 1.0; stroke: none" transform="matrix(1,0,0,1,0,0)" clip-path="url(#_68780240996059clip-2)"><path d="M 111.41 343 L 111.41 343 L 117.89 343 L 124.37 343 L 130.85 343 L 137.34 343 L 143.82 343 L 150.3 343 L 156.78 343 L 163.26 343 L 169.75 343 L 176.23 343 L 182.71 343 L 189.19 343 L 195.67 343 L 202.15 343 L 208.64 343 L 215.12 343 L 221.6 343 L 228.08 343 L 234.56 343 L 241.05 343 L 247.53 343 L 254.01 343 L 260.49 343 L 266.97 343 L 273.45 343 L 279.94 343 L 286.42 343 L 292.9 343 L 299.38 65.59 L 305.86 45.98 L 312.35 45.98 L 318.83 46.11 L 325.31 46.11 L 331.79 45.86 L 338.27 45.98 L 344.75 46.11 L 351.24 45.98 L 357.72 45.98 L 364.2 46.11 L 370.68 45.86 L 377.16 46.11 L 383.65 45.98 L 390.13 46.11 L 396.61 45.98 L 403.09 45.98 L 409.57 46.11 L 416.05 45.98 L 422.54 45.98 L 429.02 45.98 L 435.5 45.98 L 441.98 46.24 L 448.46 45.86 L 454.95 45.98 L 461.43 45.98 L 467.91 46.11 L 474.39 45.98 L 480.87 45.98 L 487.35 45.98 L 493.84 46.24 L 500.32 45.86 L 506.8 45.98 L 513.28 45.98 L 519.76 46.11 L 526.25 46.11 L 532.73 45.86 L 539.21 45.98 L 545.69 46.24 L 552.17 45.98 L 558.65 45.98 L 565.14 45.86 L 571.62 65.72 L 578.1 343 L 584.58 343 L 591.06 343 L 597.55 343 L 604.03 343 L 610.51 343 L 616.99 343 L 623.47 343 L 629.95 343 L 636.44 343 L 642.92 343 L 649.4 343 L 655.88 343 L 662.36 343 L 668.85 343 L 675.33 343 L 681.81 343 L 688.29 343 L 694.77 343 L 701.25 343 L 707.74 343 L 714.22 343 L 720.7 343 L 727.18 343 L 733.66 343 L 740.15 343 L 746.63 343 L 753.11 343 L 759.59 343 L 759.59 343 Z "/></g><g style="stroke-width: 1.0;stroke: rgb(64,64,64);stroke-opacity: 1.0;stroke-linecap: square;shape-rendering:geometricPrecision;; fill: none" transform="matrix(1,0,0,1,0,0)" clip-path="url(#_68780240996059clip-2)"><path d="M 111.41 343 L 111.41 343 L 117.89 343 L 124.37 343 L 130.85 343 L 137.34 343 L 143.82 343 L 150.3 343 L 156.78 343 L 163.26 343 L 169.75 343 L 176.23 343 L 182.71 343 L 189.19 343 L 195.67 343 L 202.15 343 L 208.64 343 L 215.12 343 L 221.6 343 L 228.08 343 L 234.56 343 L 241.05 343 L 247.53 343 L 254.01 343 L 260.49 343 L 266.97 343 L 273.45 343 L 279.94 343 L 286.42 343 L 292.9 343 L 299.38 65.59 L 305.86 45.98 L 312.35 45.98 L 318.83 46.11 L 325.31 46.11 L 331.79 45.86 L 338.27 45.98 L 344.75 46.11 L 351.24 45.98 L 357.72 45.98 L 364.2 46.11 L 370.68 45.86 L 377.16 46.11 L 383.65 45.98 L 390.13 46.11 L 396.61 45.98 L 403.09 45.98 L 409.57 46.11 L 416.05 45.98 L 422.54 45.98 L 429.02 45.98 L 435.5 45.98 L 441.98 46.24 L 448.46 45.86 L 454.95 45.98 L 461.43 45.98 L 467.91 46.11 L 474.39 45.98 L 480.87 45.98 L 487.35 45.98 L 493.84 46.24 L 500.32 45.86 L 506.8 45.98 L 513.28 45.98 L 519.76 46.11 L 526.25 46.11 L 532.73 45.86 L 539.21 45.98 L 545.69 46.24 L 552.17 45.98 L 558.65 45.98 L 565.14 45.86 L 571.62 65.72 L 578.1 343 L 584.58 343 L 591.06 343 L 597.55 343 L 604.03 343 L 610.51 343 L 616.99 343 L 623.47 343 L 629.95 343 L 636.44 343 L 642.92 343 L 649.4 343 L 655.88 343 L 662.36 343 L 668.85 343 L 675.33 343 L 681.81 343 L 688.29 343 L 694.77 343 L 701.25 343 L 707.74 343 L 714.22 343 L 720.7 343 L 727.18 343 L 733.66 343 L 740.15 343 L 746.63 343 L 753.11 343 L 759.59 343 L 759.59 343 Z "/></g><rect x="79" y="31" width="713" height="312" style="stroke-width: 0.5;stroke: rgb(128,128,128);stroke-opacity: 1.0;stroke-linecap: round;stroke-linejoin: round;shape-rendering:crispEdges;; fill: none" transform="matrix(1,0,0,1,0,0)" clip-path="url(#_68780240996059clip-0)"/></svg>
