<!DOCTYPE svg PUBLIC "-//W3C//DTD SVG 1.1//EN" "http://www.w3.org/Graphics/SVG/1.1/DTD/svg11.dtd">
<svg xmlns="http://www.w3.org/2000/svg" xmlns:xlink="http://www.w3.org/1999/xlink" xmlns:jfreesvg="http://www.jfree.org/jfreesvg/svg" width="800" height="400" text-rendering="auto" shape-rendering="auto">
<defs><clipPath id="_69270196626469clip-0"><path d="M 0 0 L 800 0 L 800 400 L 0 400 L 0 0 Z "/></clipPath>
<clipPath id="_69270196626469clip-1"><path d="M 210.5 163.5 L 210.5 963.5 L -189.5 963.5 L -189.5 163.5 L 210.5 163.5 Z "/></clipPath>
<clipPath id="_69270196626469clip-2"><path d="M 79 31 L 79 343 L 792 343 L 792 31 Z "/></clipPath>
</defs>
<rect x="0" y="0" width="800" height="400" style="fill: rgb(250,250,250); fill-opacity: 1.0" transform="matrix(1,0,0,1,0,0)" clip-path="url(#_69270196626469clip-0)"/><g transform="matrix(1,0,0,1,0,0)"><text x="251" y="20.34" style="fill: rgb(0,0,0); fill-opacity: 1.0; font-family: sans-serif; font-size: 20px;" clip-path="url(#_69270196626469clip-0)">Uniform from MersenneTwister</text></g><rect x="79" y="31" width="713" height="312" style="fill: rgb(255,255,255); fill-opacity: 1.0" transform="matrix(1,0,0,1,0,0)" clip-path="url(#_69270196626469clip-0)"/><line x1="79" y1="343" x2="792" y2="343" style="stroke-width: 0.5;stroke: rgb(128,128,128);stroke-opacity: 1.0;stroke-linecap: square;shape-rendering:crispEdges;" transform="matrix(1,0,0,1,0,0)" clip-path="url(#_69270196626469clip-0)"/><g transform="matrix(1,0,0,1,0,0)"><text x="115.81" y="361.5" style="fill: rgb(0,0,0); fill-opacity: 1.0; font-family: serif; font-size: 18px;" clip-path="url(#_69270196626469clip-0)">-0.6</text></g><line x1="130.31" y1="345" x2="130.31" y2="343" style="stroke-width: 0.5;stroke: rgb(128,128,128);stroke-opacity: 1.0;stroke-linecap: square;shape-rendering:crispEdges;" transform="matrix(1,0,0,1,0,0)" clip-path="url(#_69270196626469clip-0)"/><g transform="matrix(1,0,0,1,0,0)"><text x="171.31" y="361.5" style="fill: rgb(0,0,0); fill-opacity: 1.0; font-family: serif; font-size: 18px;" clip-path="url(#_69270196626469clip-0)">-0.4</text></g><line x1="185.81" y1="345" x2="185.81" y2="343" style="stroke-width: 0.5;stroke: rgb(128,128,128);stroke-opacity: 1.0;stroke-linecap: square;shape-rendering:crispEdges;" transform="matrix(1,0,0,1,0,0)" clip-path="url(#_69270196626469clip-0)"/><g transform="matrix(1,0,0,1,0,0)"><text x="226.82" y="361.5" style="fill: rgb(0,0,0); fill-opacity: 1.0; font-family: serif; font-size: 18px;" clip-path="url(#_69270196626469clip-0)">-0.2</text></g><line x1="241.32" y1="345" x2="241.32" y2="343" style="stroke-width: 0.5;stroke: rgb(128,128,128);stroke-opacity: 1.0;stroke-linecap: square;shape-rendering:crispEdges;" transform="matrix(1,0,0,1,0,0)" clip-path="url(#_69270196626469clip-0)"/><g transform="matrix(1,0,0,1,0,0)"><text x="292.32" y="361.5" style="fill: rgb(0,0,0); fill-opacity: 1.0; font-family: serif; font-size: 18px;" clip-path="url(#_69270196626469clip-0)">0</text></g><line x1="296.82" y1="345" x2="296.82" y2="343" style="stroke-width: 0.5;stroke: rgb(128,128,128);stroke-opacity: 1.0;stroke-linecap: square;shape-rendering:crispEdges;" transform="matrix(1,0,0,1,0,0)" clip-path="url(#_69270196626469clip-0)"/><g transform="matrix(1,0,0,1,0,0)"><text x="340.83" y="361.5" style="fill: rgb(0,0,0); fill-opacity: 1.0; font-family: serif; font-size: 18px;" clip-path="url(#_69270196626469clip-0)">0.2</text></g><line x1="352.33" y1="345" x2="352.33" y2="343" style="stroke-width: 0.5;stroke: rgb(128,128,128);stroke-opacity: 1.0;stroke-linecap: square;shape-rendering:crispEdges;" transform="matrix(1,0,0,1,0,0)" clip-path="url(#_69270196626469clip-0)"/><g transform="matrix(1,0,0,1,0,0)"><text x="396.33" y="361.5" style="fill: rgb(0,0,0); fill-opacity: 1.0; font-family: serif; font-size: 18px;" clip-path="url(#_69270196626469clip-0)">0.4</text></g><line x1="407.83" y1="345" x2="407.83" y2="343" style="stroke-width: 0.5;stroke: rgb(128,128,128);stroke-opacity: 1.0;stroke-linecap: square;shape-rendering:crispEdges;" transform="matrix(1,0,0,1,0,0)" clip-path="url(#_69270196626469clip-0)"/><g transform="matrix(1,0,0,1,0,0)"><text x="451.84" y="361.5" style="fill: rgb(0,0,0); fill-opacity: 1.0; font-family: serif; font-size: 18px;" clip-path="url(#_69270196626469clip-0)">0.6</text></g><line x1="463.34" y1="345" x2="463.34" y2="343" style="stroke-width: 0.5;stroke: rgb(128,128,128);stroke-opacity: 1.0;stroke-linecap: square;shape-rendering:crispEdges;" transform="matrix(1,0,0,1,0,0)" clip-path="url(#_69270196626469clip-0)"/><g transform="matrix(1,0,0,1,0,0)"><text x="507.34" y="361.5" style="fill: rgb(0,0,0); fill-opacity: 1.0; font-family: serif; font-size: 18px;" clip-path="url(#_69270196626469clip-0)">0.8</text></g><line x1="518.84" y1="345" x2="518.84" y2="343" style="stroke-width: 0.5;stroke: rgb(128,128,128);stroke-opacity: 1.0;stroke-linecap: square;shape-rendering:crispEdges;" transform="matrix(1,0,0,1,0,0)" clip-path="url(#_69270196626469clip-0)"/><g transform="matrix(1,0,0,1,0,0)"><text x="569.85" y="361.5" style="fill: rgb(0,0,0); fill-opacity: 1.0; font-family: serif; font-size: 18px;" clip-path="url(#_69270196626469clip-0)">1</text></g><line x1="574.35" y1="345" x2="574.35" y2="343" style="stroke-width: 0.5;stroke: rgb(128,128,128);stroke-opacity: 1.0;stroke-linecap: square;shape-rendering:crispEdges;" transform="matrix(1,0,0,1,0,0)" clip-path="url(#_69270196626469clip-0)"/><g transform="matrix(1,0,0,1,0,0)"><text x="618.35" y="361.5" style="fill: rgb(0,0,0); fill-opacity: 1.0; font-family: serif; font-size: 18px;" clip-path="url(#_69270196626469clip-0)">1.2</text></g><line x1="629.85" y1="345" x2="629.85" y2="343" style="stroke-width: 0.5;stroke: rgb(128,128,128);stroke-opacity: 1.0;stroke-linecap: square;shape-rendering:crispEdges;" transform="matrix(1,0,0,1,0,0)" clip-path="url(#_69270196626469clip-0)"/><g transform="matrix(1,0,0,1,0,0)"><text x="673.86" y="361.5" style="fill: rgb(0,0,0); fill-opacity: 1.0; font-family: serif; font-size: 18px;" clip-path="url(#_69270196626469clip-0)">1.4</text></g><line x1="685.36" y1="345" x2="685.36" y2="343" style="stroke-width: 0.5;stroke: rgb(128,128,128);stroke-opacity: 1.0;stroke-linecap: square;shape-rendering:crispEdges;" transform="matrix(1,0,0,1,0,0)" clip-path="url(#_69270196626469clip-0)"/><g transform="matrix(1,0,0,1,0,0)"><text x="729.36" y="361.5" style="fill: rgb(0,0,0); fill-opacity: 1.0; font-family: serif; font-size: 18px;" clip-path="url(#_69270196626469clip-0)">1.6</text></g><line x1="740.86" y1="345" x2="740.86" y2="343" style="stroke-width: 0.5;stroke: rgb(128,128,128);stroke-opacity: 1.0;stroke-linecap: square;shape-rendering:crispEdges;" transform="matrix(1,0,0,1,0,0)" clip-path="url(#_69270196626469clip-0)"/><g transform="matrix(1,0,0,1,0,0)"><text x="405.5" y="388.78" style="fill: rgb(0,0,0); fill-opacity: 1.0; font-family: sans-serif; font-size: 20px;" clip-path="url(#_69270196626469clip-0)">values</text></g><line x1="79" y1="31" x2="79" y2="343" style="stroke-width: 0.5;stroke: rgb(128,128,128);stroke-opacity: 1.0;stroke-linecap: square;shape-rendering:crispEdges;" transform="matrix(1,0,0,1,0,0)" clip-path="url(#_69270196626469clip-0)"/><g transform="matrix(1,0,0,1,0,0)"><text x="64" y="348" style="fill: rgb(0,0,0); fill-opacity: 1.0; font-family: serif; font-size: 18px;" clip-path="url(#_69270196626469clip-0)">0</text></g><line x1="77" y1="343" x2="79" y2="343" style="stroke-width: 0.5;stroke: rgb(128,128,128);stroke-opacity: 1.0;stroke-linecap: square;shape-rendering:crispEdges;" transform="matrix(1,0,0,1,0,0)" clip-path="url(#_69270196626469clip-0)"/><g transform="matrix(1,0,0,1,0,0)"><text x="64" y="323.7" style="fill: rgb(0,0,0); fill-opacity: 1.0; font-family: serif; font-size: 18px;" clip-path="url(#_69270196626469clip-0)">0</text></g><line x1="77" y1="318.7" x2="79" y2="318.7" style="stroke-width: 0.5;stroke: rgb(128,128,128);stroke-opacity: 1.0;stroke-linecap: square;shape-rendering:crispEdges;" transform="matrix(1,0,0,1,0,0)" clip-path="url(#_69270196626469clip-0)"/><g transform="matrix(1,0,0,1,0,0)"><text x="64" y="299.41" style="fill: rgb(0,0,0); fill-opacity: 1.0; font-family: serif; font-size: 18px;" clip-path="url(#_69270196626469clip-0)">0</text></g><line x1="77" y1="294.41" x2="79" y2="294.41" style="stroke-width: 0.5;stroke: rgb(128,128,128);stroke-opacity: 1.0;stroke-linecap: square;shape-rendering:crispEdges;" transform="matrix(1,0,0,1,0,0)" clip-path="url(#_69270196626469clip-0)"/><g transform="matrix(1,0,0,1,0,0)"><text x="41" y="275.11" style="fill: rgb(0,0,0); fill-opacity: 1.0; font-family: serif; font-size: 18px;" clip-path="url(#_69270196626469clip-0)">0.01</text></g><line x1="77" y1="270.11" x2="79" y2="270.11" style="stroke-width: 0.5;stroke: rgb(128,128,128);stroke-opacity: 1.0;stroke-linecap: square;shape-rendering:crispEdges;" transform="matrix(1,0,0,1,0,0)" clip-path="url(#_69270196626469clip-0)"/><g transform="matrix(1,0,0,1,0,0)"><text x="41" y="250.82" style="fill: rgb(0,0,0); fill-opacity: 1.0; font-family: serif; font-size: 18px;" clip-path="url(#_69270196626469clip-0)">0.01</text></g><line x1="77" y1="245.82" x2="79" y2="245.82" style="stroke-width: 0.5;stroke: rgb(128,128,128);stroke-opacity: 1.0;stroke-linecap: square;shape-rendering:crispEdges;" transform="matrix(1,0,0,1,0,0)" clip-path="url(#_69270196626469clip-0)"/><g transform="matrix(1,0,0,1,0,0)"><text x="41" y="226.52" style="fill: rgb(0,0,0); fill-opacity: 1.0; font-family: serif; font-size: 18px;" clip-path="url(#_69270196626469clip-0)">0.01</text></g><line x1="77" y1="221.52" x2="79" y2="221.52" style="stroke-width: 0.5;stroke: rgb(128,128,128);stroke-opacity: 1.0;stroke-linecap: square;shape-rendering:crispEdges;" transform="matrix(1,0,0,1,0,0)" clip-path="url(#_69270196626469clip-0)"/><g transform="matrix(1,0,0,1,0,0)"><text x="41" y="202.22" style="fill: rgb(0,0,0); fill-opacity: 1.0; font-family: serif; font-size: 18px;" clip-path="url(#_69270196626469clip-0)">0.01</text></g><line x1="77" y1="197.22" x2="79" y2="197.22" style="stroke-width: 0.5;stroke: rgb(128,128,128);stroke-opacity: 1.0;stroke-linecap: square;shape-rendering:crispEdges;" transform="matrix(1,0,0,1,0,0)" clip-path="url(#_69270196626469clip-0)"/><g transform="matrix(1,0,0,1,0,0)"><text x="41" y="177.93" style="fill: rgb(0,0,0); fill-opacity: 1.0; font-family: serif; font-size: 18px;" clip-path="url(#_69270196626469clip-0)">0.01</text></g><line x1="77" y1="172.93" x2="79" y2="172.93" style="stroke-width: 0.5;stroke: rgb(128,128,128);stroke-opacity: 1.0;stroke-linecap: square;shape-rendering:crispEdges;" transform="matrix(1,0,0,1,0,0)" clip-path="url(#_69270196626469clip-0)"/><g transform="matrix(1,0,0,1,0,0)"><text x="41" y="153.63" style="fill: rgb(0,0,0); fill-opacity: 1.0; font-family: serif; font-size: 18px;" clip-path="url(#_69270196626469clip-0)">0.02</text></g><line x1="77" y1="148.63" x2="79" y2="148.63" style="stroke-width: 0.5;stroke: rgb(128,128,128);stroke-opacity: 1.0;stroke-linecap: square;shape-rendering:crispEdges;" transform="matrix(1,0,0,1,0,0)" clip-path="url(#_69270196626469clip-0)"/><g transform="matrix(1,0,0,1,0,0)"><text x="41" y="129.33" style="fill: rgb(0,0,0); fill-opacity: 1.0; font-family: serif; font-size: 18px;" clip-path="url(#_69270196626469clip-0)">0.02</text></g><line x1="77" y1="124.33" x2="79" y2="124.33" style="stroke-width: 0.5;stroke: rgb(128,128,128);stroke-opacity: 1.0;stroke-linecap: square;shape-rendering:crispEdges;" transform="matrix(1,0,0,1,0,0)" clip-path="url(#_69270196626469clip-0)"/><g transform="matrix(1,0,0,1,0,0)"><text x="41" y="105.04" style="fill: rgb(0,0,0); fill-opacity: 1.0; font-family: serif; font-size: 18px;" clip-path="url(#_69270196626469clip-0)">0.02</text></g><line x1="77" y1="100.04" x2="79" y2="100.04" style="stroke-width: 0.5;stroke: rgb(128,128,128);stroke-opacity: 1.0;stroke-linecap: square;shape-rendering:crispEdges;" transform="matrix(1,0,0,1,0,0)" clip-path="url(#_69270196626469clip-0)"/><g transform="matrix(1,0,0,1,0,0)"><text x="41" y="80.74" style="fill: rgb(0,0,0); fill-opacity: 1.0; font-family: serif; font-size: 18px;" clip-path="url(#_69270196626469clip-0)">0.02</text></g><line x1="77" y1="75.74" x2="79" y2="75.74" style="stroke-width: 0.5;stroke: rgb(128,128,128);stroke-opacity: 1.0;stroke-linecap: square;shape-rendering:crispEdges;" transform="matrix(1,0,0,1,0,0)" clip-path="url(#_69270196626469clip-0)"/><g transform="matrix(1,0,0,1,0,0)"><text x="41" y="56.45" style="fill: rgb(0,0,0); fill-opacity: 1.0; font-family: serif; font-size: 18px;" clip-path="url(#_69270196626469clip-0)">0.02</text></g><line x1="77" y1="51.45" x2="79" y2="51.45" style="stroke-width: 0.5;stroke: rgb(128,128,128);stroke-opacity: 1.0;stroke-linecap: square;shape-rendering:crispEdges;" transform="matrix(1,0,0,1,0,0)" clip-path="url(#_69270196626469clip-0)"/><g style="fill: rgb(0,0,0); fill-opacity: 1.0; stroke: none" transform="matrix(0,-1,1,0,-163.5,210.5)" clip-path="url(#_69270196626469clip-1)"><path d="M -19.28 186.12 L -19.28 195.28 L -21.21 195.28 L -21.21 186.12 L -22.72 186.12 L -22.72 184.68 L -21.21 184.68 L -21.21 183.41 Q -21.21 179.62 -17.76 179.62 Q -16.79 179.62 -15.56 179.94 L -15.56 181.46 Q -16.86 181.06 -17.64 181.06 Q -18.59 181.06 -18.93 181.52 Q -19.28 181.97 -19.28 183.2 L -19.28 184.68 L -16.63 184.68 L -16.63 186.12 Z  M -14.22 195.28 L -14.22 184.68 L -12.3 184.68 L -12.3 186.67 Q -11.16 184.44 -8.98 184.44 Q -8.69 184.44 -8.36 184.49 L -8.36 186.29 Q -8.86 186.12 -9.24 186.12 Q -11.07 186.12 -12.3 188.29 L -12.3 195.28 Z  M 1.73 194.94 Q -0.2 195.53 -1.58 195.53 Q -3.92 195.53 -5.4 193.97 Q -6.88 192.41 -6.88 189.93 Q -6.88 187.52 -5.58 185.97 Q -4.27 184.43 -2.24 184.43 Q -0.32 184.43 0.73 185.8 Q 1.78 187.17 1.78 189.69 L 1.77 190.28 L -4.92 190.28 Q -4.5 194.06 -1.21 194.06 Q -0.01 194.06 1.73 193.42 Z  M -4.83 188.84 L -0.15 188.84 Q -0.15 185.88 -2.36 185.88 Q -4.57 185.88 -4.83 188.84 Z  M 11.91 199.14 L 11.91 193.29 Q 10.74 195.53 8.38 195.53 Q 6.46 195.53 5.36 194.13 Q 4.26 192.73 4.26 190.31 Q 4.26 187.66 5.51 186.05 Q 6.75 184.44 8.79 184.44 Q 10.67 184.44 11.91 185.89 L 11.91 184.68 L 13.84 184.68 L 13.84 199.14 Z  M 11.91 187.21 Q 10.42 185.89 9.08 185.89 Q 6.31 185.89 6.31 190.12 Q 6.31 193.84 8.78 193.84 Q 10.38 193.84 11.91 192.09 Z  M 24.32 195.28 L 24.32 193.29 Q 22.79 195.53 20.6 195.53 Q 19.21 195.53 18.39 194.65 Q 17.57 193.78 17.57 192.29 L 17.57 184.68 L 19.5 184.68 L 19.5 191.67 Q 19.5 192.86 19.84 193.36 Q 20.19 193.87 21 193.87 Q 22.76 193.87 24.32 191.55 L 24.32 184.68 L 26.25 184.68 L 26.25 195.28 Z  M 37.88 194.94 Q 35.94 195.53 34.57 195.53 Q 32.22 195.53 30.74 193.97 Q 29.26 192.41 29.26 189.93 Q 29.26 187.52 30.57 185.97 Q 31.87 184.43 33.9 184.43 Q 35.83 184.43 36.88 185.8 Q 37.93 187.17 37.93 189.69 L 37.92 190.28 L 31.23 190.28 Q 31.65 194.06 34.93 194.06 Q 36.13 194.06 37.88 193.42 Z  M 31.31 188.84 L 35.99 188.84 Q 35.99 185.88 33.79 185.88 Q 31.57 185.88 31.31 188.84 Z  M 41.25 195.28 L 41.25 184.68 L 43.17 184.68 L 43.17 186.67 Q 44.69 184.44 46.9 184.44 Q 48.28 184.44 49.1 185.32 Q 49.92 186.19 49.92 187.66 L 49.92 195.28 L 47.99 195.28 L 47.99 188.29 Q 47.99 187.11 47.65 186.6 Q 47.3 186.1 46.5 186.1 Q 44.73 186.1 43.17 188.42 L 43.17 195.28 Z  M 57.8 195.53 Q 55.65 195.53 54.23 193.93 Q 52.82 192.34 52.82 189.92 Q 52.82 187.33 54.22 185.89 Q 55.62 184.44 58.13 184.44 Q 59.37 184.44 60.9 184.78 L 60.9 186.39 Q 59.27 185.92 58.25 185.92 Q 56.77 185.92 55.88 187.02 Q 54.99 188.13 54.99 189.98 Q 54.99 191.77 55.9 192.87 Q 56.82 193.97 58.31 193.97 Q 59.62 193.97 61.02 193.3 L 61.02 194.96 Q 59.16 195.53 57.8 195.53 Z  M 64.52 199.14 L 66.24 195.28 L 62.13 184.68 L 64.21 184.68 L 67.25 192.66 L 70.49 184.68 L 72.31 184.68 L 66.52 199.14 Z "/></g><line x1="130.31" y1="31" x2="130.31" y2="343" style="stroke-width: 0.5;stroke: rgb(192,192,192);stroke-opacity: 1.0;stroke-linejoin: bevel;stroke-dasharray: 2.0, 2.0;shape-rendering:crispEdges;" transform="matrix(1,0,0,1,0,0)" clip-path="url(#_69270196626469clip-2)"/><line x1="185.81" y1="31" x2="185.81" y2="343" style="stroke-width: 0.5;stroke: rgb(192,192,192);stroke-opacity: 1.0;stroke-linejoin: bevel;stroke-dasharray: 2.0, 2.0;shape-rendering:crispEdges;" transform="matrix(1,0,0,1,0,0)" clip-path="url(#_69270196626469clip-2)"/><line x1="241.32" y1="31" x2="241.32" y2="343" style="stroke-width: 0.5;stroke: rgb(192,192,192);stroke-opacity: 1.0;stroke-linejoin: bevel;stroke-dasharray: 2.0, 2.0;shape-rendering:crispEdges;" transform="matrix(1,0,0,1,0,0)" clip-path="url(#_69270196626469clip-2)"/><line x1="296.82" y1="31" x2="296.82" y2="343" style="stroke-width: 0.5;stroke: rgb(192,192,192);stroke-opacity: 1.0;stroke-linejoin: bevel;stroke-dasharray: 2.0, 2.0;shape-rendering:crispEdges;" transform="matrix(1,0,0,1,0,0)" clip-path="url(#_69270196626469clip-2)"/><line x1="352.33" y1="31" x2="352.33" y2="343" style="stroke-width: 0.5;stroke: rgb(192,192,192);stroke-opacity: 1.0;stroke-linejoin: bevel;stroke-dasharray: 2.0, 2.0;shape-rendering:crispEdges;" transform="matrix(1,0,0,1,0,0)" clip-path="url(#_69270196626469clip-2)"/><line x1="407.83" y1="31" x2="407.83" y2="343" style="stroke-width: 0.5;stroke: rgb(192,192,192);stroke-opacity: 1.0;stroke-linejoin: bevel;stroke-dasharray: 2.0, 2.0;shape-rendering:crispEdges;" transform="matrix(1,0,0,1,0,0)" clip-path="url(#_69270196626469clip-2)"/><line x1="463.34" y1="31" x2="463.34" y2="343" style="stroke-width: 0.5;stroke: rgb(192,192,192);stroke-opacity: 1.0;stroke-linejoin: bevel;stroke-dasharray: 2.0, 2.0;shape-rendering:crispEdges;" transform="matrix(1,0,0,1,0,0)" clip-path="url(#_69270196626469clip-2)"/><line x1="518.84" y1="31" x2="518.84" y2="343" style="stroke-width: 0.5;stroke: rgb(192,192,192);stroke-opacity: 1.0;stroke-linejoin: bevel;stroke-dasharray: 2.0, 2.0;shape-rendering:crispEdges;" transform="matrix(1,0,0,1,0,0)" clip-path="url(#_69270196626469clip-2)"/><line x1="574.35" y1="31" x2="574.35" y2="343" style="stroke-width: 0.5;stroke: rgb(192,192,192);stroke-opacity: 1.0;stroke-linejoin: bevel;stroke-dasharray: 2.0, 2.0;shape-rendering:crispEdges;" transform="matrix(1,0,0,1,0,0)" clip-path="url(#_69270196626469clip-2)"/><line x1="629.85" y1="31" x2="629.85" y2="343" style="stroke-width: 0.5;stroke: rgb(192,192,192);stroke-opacity: 1.0;stroke-linejoin: bevel;stroke-dasharray: 2.0, 2.0;shape-rendering:crispEdges;" transform="matrix(1,0,0,1,0,0)" clip-path="url(#_69270196626469clip-2)"/><line x1="685.36" y1="31" x2="685.36" y2="343" style="stroke-width: 0.5;stroke: rgb(192,192,192);stroke-opacity: 1.0;stroke-linejoin: bevel;stroke-dasharray: 2.0, 2.0;shape-rendering:crispEdges;" transform="matrix(1,0,0,1,0,0)" clip-path="url(#_69270196626469clip-2)"/><line x1="740.86" y1="31" x2="740.86" y2="343" style="stroke-width: 0.5;stroke: rgb(192,192,192);stroke-opacity: 1.0;stroke-linejoin: bevel;stroke-dasharray: 2.0, 2.0;shape-rendering:crispEdges;" transform="matrix(1,0,0,1,0,0)" clip-path="url(#_69270196626469clip-2)"/><line x1="79" y1="343" x2="792" y2="343" style="stroke-width: 0.5;stroke: rgb(192,192,192);stroke-opacity: 1.0;stroke-linejoin: bevel;stroke-dasharray: 2.0, 2.0;shape-rendering:crispEdges;" transform="matrix(1,0,0,1,0,0)" clip-path="url(#_69270196626469clip-2)"/><line x1="79" y1="318.7" x2="792" y2="318.7" style="stroke-width: 0.5;stroke: rgb(192,192,192);stroke-opacity: 1.0;stroke-linejoin: bevel;stroke-dasharray: 2.0, 2.0;shape-rendering:crispEdges;" transform="matrix(1,0,0,1,0,0)" clip-path="url(#_69270196626469clip-2)"/><line x1="79" y1="294.41" x2="792" y2="294.41" style="stroke-width: 0.5;stroke: rgb(192,192,192);stroke-opacity: 1.0;stroke-linejoin: bevel;stroke-dasharray: 2.0, 2.0;shape-rendering:crispEdges;" transform="matrix(1,0,0,1,0,0)" clip-path="url(#_69270196626469clip-2)"/><line x1="79" y1="270.11" x2="792" y2="270.11" style="stroke-width: 0.5;stroke: rgb(192,192,192);stroke-opacity: 1.0;stroke-linejoin: bevel;stroke-dasharray: 2.0, 2.0;shape-rendering:crispEdges;" transform="matrix(1,0,0,1,0,0)" clip-path="url(#_69270196626469clip-2)"/><line x1="79" y1="245.82" x2="792" y2="245.82" style="stroke-width: 0.5;stroke: rgb(192,192,192);stroke-opacity: 1.0;stroke-linejoin: bevel;stroke-dasharray: 2.0, 2.0;shape-rendering:crispEdges;" transform="matrix(1,0,0,1,0,0)" clip-path="url(#_69270196626469clip-2)"/><line x1="79" y1="221.52" x2="792" y2="221.52" style="stroke-width: 0.5;stroke: rgb(192,192,192);stroke-opacity: 1.0;stroke-linejoin: bevel;stroke-dasharray: 2.0, 2.0;shape-rendering:crispEdges;" transform="matrix(1,0,0,1,0,0)" clip-path="url(#_69270196626469clip-2)"/><line x1="79" y1="197.22" x2="792" y2="197.22" style="stroke-width: 0.5;stroke: rgb(192,192,192);stroke-opacity: 1.0;stroke-linejoin: bevel;stroke-dasharray: 2.0, 2.0;shape-rendering:crispEdges;" transform="matrix(1,0,0,1,0,0)" clip-path="url(#_69270196626469clip-2)"/><line x1="79" y1="172.93" x2="792" y2="172.93" style="stroke-width: 0.5;stroke: rgb(192,192,192);stroke-opacity: 1.0;stroke-linejoin: bevel;stroke-dasharray: 2.0, 2.0;shape-rendering:crispEdges;" transform="matrix(1,0,0,1,0,0)" clip-path="url(#_69270196626469clip-2)"/><line x1="79" y1="148.63" x2="792" y2="148.63" style="stroke-width: 0.5;stroke: rgb(192,192,192);stroke-opacity: 1.0;stroke-linejoin: bevel;stroke-dasharray: 2.0, 2.0;shape-rendering:crispEdges;" transform="matrix(1,0,0,1,0,0)" clip-path="url(#_69270196626469clip-2)"/><line x1="79" y1="124.33" x2="792" y2="124.33" style="stroke-width: 0.5;stroke: rgb(192,192,192);stroke-opacity: 1.0;stroke-linejoin: bevel;stroke-dasharray: 2.0, 2.0;shape-rendering:crispEdges;" transform="matrix(1,0,0,1,0,0)" clip-path="url(#_69270196626469clip-2)"/><line x1="79" y1="100.04" x2="792" y2="100.04" style="stroke-width: 0.5;stroke: rgb(192,192,192);stroke-opacity: 1.0;stroke-linejoin: bevel;stroke-dasharray: 2.0, 2.0;shape-rendering:crispEdges;" transform="matrix(1,0,0,1,0,0)" clip-path="url(#_69270196626469clip-2)"/><line x1="79" y1="75.74" x2="792" y2="75.74" style="stroke-width: 0.5;stroke: rgb(192,192,192);stroke-opacity: 1.0;stroke-linejoin: bevel;stroke-dasharray: 2.0, 2.0;shape-rendering:crispEdges;" transform="matrix(1,0,0,1,0,0)" clip-path="url(#_69270196626469clip-2)"/><line x1="79" y1="51.45" x2="792" y2="51.45" style="stroke-width: 0.5;stroke: rgb(192,192,192);stroke-opacity: 1.0;stroke-linejoin: bevel;stroke-dasharray: 2.0, 2.0;shape-rendering:crispEdges;" transform="matrix(1,0,0,1,0,0)" clip-path="url(#_69270196626469clip-2)"/><g style="fill: rgb(192,192,192); fill-opacity: 1.0; stroke: none" transform="matrix(1,0,0,1,0,0)" clip-path="url(#_69270196626469clip-2)"><path d="M 111.41 343 L 111.41 343 L 117.89 343 L 124.37 343 L 130.85 343 L 137.34 343 L 143.82 343 L 150.3 343 L 156.78 343 L 163.26 343 L 169.75 343 L 176.23 343 L 182.71 343 L 189.19 343 L 195.67 343 L 202.15 343 L 208.64 343 L 215.12 343 L 221.6 343 L 228.08 343 L 234.56 343 L 241.05 343 L 247.53 343 L 254.01 343 L 260.49 343 L 266.97 343 L 273.45 343 L 279.94 343 L 286.42 343 L 292.9 343 L 299.38 87.77 L 305.86 53.15 L 312.35 52.05 L 318.83 60.07 L 325.31 62.5 L 331.79 60.68 L 338.27 60.43 L 344.75 57.4 L 351.24 69.91 L 357.72 54.73 L 364.2 58.73 L 370.68 48.17 L 377.16 60.07 L 383.65 66.63 L 390.13 54.73 L 396.61 65.54 L 403.09 59.95 L 409.57 66.27 L 416.05 54.12 L 422.54 47.56 L 429.02 59.46 L 435.5 66.75 L 441.98 59.1 L 448.46 54.85 L 454.95 63.96 L 461.43 60.07 L 467.91 66.51 L 474.39 64.57 L 480.87 63.96 L 487.35 56.67 L 493.84 51.57 L 500.32 61.41 L 506.8 57.4 L 513.28 57.15 L 519.76 65.42 L 526.25 58.37 L 532.73 59.1 L 539.21 63.59 L 545.69 56.18 L 552.17 45.86 L 558.65 66.51 L 565.14 69.67 L 571.62 72.34 L 578.1 343 L 584.58 343 L 591.06 343 L 597.55 343 L 604.03 343 L 610.51 343 L 616.99 343 L 623.47 343 L 629.95 343 L 636.44 343 L 642.92 343 L 649.4 343 L 655.88 343 L 662.36 343 L 668.85 343 L 675.33 343 L 681.81 343 L 688.29 343 L 694.77 343 L 701.25 343 L 707.74 343 L 714.22 343 L 720.7 343 L 727.18 343 L 733.66 343 L 740.15 343 L 746.63 343 L 753.11 343 L 759.59 343 L 759.59 343 Z "/></g><g style="stroke-width: 1.0;stroke: rgb(64,64,64);stroke-opacity: 1.0;stroke-linecap: square;shape-rendering:geometricPrecision;; fill: none" transform="matrix(1,0,0,1,0,0)" clip-path="url(#_69270196626469clip-2)"><path d="M 111.41 343 L 111.41 343 L 117.89 343 L 124.37 343 L 130.85 343 L 137.34 343 L 143.82 343 L 150.3 343 L 156.78 343 L 163.26 343 L 169.75 343 L 176.23 343 L 182.71 343 L 189.19 343 L 195.67 343 L 202.15 343 L 208.64 343 L 215.12 343 L 221.6 343 L 228.08 343 L 234.56 343 L 241.05 343 L 247.53 343 L 254.01 343 L 260.49 343 L 266.97 343 L 273.45 343 L 279.94 343 L 286.42 343 L 292.9 343 L 299.38 87.77 L 305.86 53.15 L 312.35 52.05 L 318.83 60.07 L 325.31 62.5 L 331.79 60.68 L 338.27 60.43 L 344.75 57.4 L 351.24 69.91 L 357.72 54.73 L 364.2 58.73 L 370.68 48.17 L 377.16 60.07 L 383.65 66.63 L 390.13 54.73 L 396.61 65.54 L 403.09 59.95 L 409.57 66.27 L 416.05 54.12 L 422.54 47.56 L 429.02 59.46 L 435.5 66.75 L 441.98 59.1 L 448.46 54.85 L 454.95 63.96 L 461.43 60.07 L 467.91 66.51 L 474.39 64.57 L 480.87 63.96 L 487.35 56.67 L 493.84 51.57 L 500.32 61.41 L 506.8 57.4 L 513.28 57.15 L 519.76 65.42 L 526.25 58.37 L 532.73 59.1 L 539.21 63.59 L 545.69 56.18 L 552.17 45.86 L 558.65 66.51 L 565.14 69.67 L 571.62 72.34 L 578.1 343 L 584.58 343 L 591.06 343 L 597.55 343 L 604.03 343 L 610.51 343 L 616.99 343 L 623.47 343 L 629.95 343 L 636.44 343 L 642.92 343 L 649.4 343 L 655.88 343 L 662.36 343 L 668.85 343 L 675.33 343 L 681.81 343 L 688.29 343 L 694.77 343 L 701.25 343 L 707.74 343 L 714.22 343 L 720.7 343 L 727.18 343 L 733.66 343 L 740.15 343 L 746.63 343 L 753.11 343 L 759.59 343 L 759.59 343 Z "/></g><rect x="79" y="31" width="713" height="312" style="stroke-width: 0.5;stroke: rgb(128,128,128);stroke-opacity: 1.0;stroke-linecap: round;stroke-linejoin: round;shape-rendering:crispEdges;; fill: none" transform="matrix(1,0,0,1,0,0)" clip-path="url(#_69270196626469clip-0)"/></svg>
