<!DOCTYPE svg PUBLIC "-//W3C//DTD SVG 1.1//EN" "http://www.w3.org/Graphics/SVG/1.1/DTD/svg11.dtd">
<svg xmlns="http://www.w3.org/2000/svg" xmlns:xlink="http://www.w3.org/1999/xlink" xmlns:jfreesvg="http://www.jfree.org/jfreesvg/svg" width="800" height="450" text-rendering="auto" shape-rendering="auto">
<defs><clipPath id="_167131773978461clip-0"><path d="M 0 0 L 800 0 L 800 450 L 0 450 L 0 0 Z "/></clipPath>
<clipPath id="_167131773978461clip-1"><path d="M 235.5 188.5 L 235.5 988.5 L -214.5 988.5 L -214.5 188.5 L 235.5 188.5 Z "/></clipPath>
<clipPath id="_167131773978461clip-2"><path d="M 79 31 L 79 393 L 792 393 L 792 31 Z "/></clipPath>
</defs>
<rect x="0" y="0" width="800" height="450" style="fill: rgb(250,250,250); fill-opacity: 1.0" transform="matrix(1,0,0,1,0,0)" clip-path="url(#_167131773978461clip-0)"/><g transform="matrix(1,0,0,1,0,0)"><text x="350" y="20.34" style="fill: rgb(0,0,0); fill-opacity: 1.0; font-family: sans-serif; font-size: 20px;" clip-path="url(#_167131773978461clip-0)">Histogram</text></g><rect x="79" y="31" width="713" height="362" style="fill: rgb(255,255,255); fill-opacity: 1.0" transform="matrix(1,0,0,1,0,0)" clip-path="url(#_167131773978461clip-0)"/><line x1="79" y1="393" x2="792" y2="393" style="stroke-width: 0.5;stroke: rgb(128,128,128);stroke-opacity: 1.0;stroke-linecap: square;shape-rendering:crispEdges;" transform="matrix(1,0,0,1,0,0)" clip-path="url(#_167131773978461clip-0)"/><g transform="matrix(1,0,0,1,0,0)"><text x="118.88" y="411.5" style="fill: rgb(0,0,0); fill-opacity: 1.0; font-family: serif; font-size: 18px;" clip-path="url(#_167131773978461clip-0)">-1.5</text></g><line x1="133.38" y1="395" x2="133.38" y2="393" style="stroke-width: 0.5;stroke: rgb(128,128,128);stroke-opacity: 1.0;stroke-linecap: square;shape-rendering:crispEdges;" transform="matrix(1,0,0,1,0,0)" clip-path="url(#_167131773978461clip-0)"/><g transform="matrix(1,0,0,1,0,0)"><text x="226.7" y="411.5" style="fill: rgb(0,0,0); fill-opacity: 1.0; font-family: serif; font-size: 18px;" clip-path="url(#_167131773978461clip-0)">-1</text></g><line x1="234.2" y1="395" x2="234.2" y2="393" style="stroke-width: 0.5;stroke: rgb(128,128,128);stroke-opacity: 1.0;stroke-linecap: square;shape-rendering:crispEdges;" transform="matrix(1,0,0,1,0,0)" clip-path="url(#_167131773978461clip-0)"/><g transform="matrix(1,0,0,1,0,0)"><text x="320.51" y="411.5" style="fill: rgb(0,0,0); fill-opacity: 1.0; font-family: serif; font-size: 18px;" clip-path="url(#_167131773978461clip-0)">-0.5</text></g><line x1="335.01" y1="395" x2="335.01" y2="393" style="stroke-width: 0.5;stroke: rgb(128,128,128);stroke-opacity: 1.0;stroke-linecap: square;shape-rendering:crispEdges;" transform="matrix(1,0,0,1,0,0)" clip-path="url(#_167131773978461clip-0)"/><g transform="matrix(1,0,0,1,0,0)"><text x="431.33" y="411.5" style="fill: rgb(0,0,0); fill-opacity: 1.0; font-family: serif; font-size: 18px;" clip-path="url(#_167131773978461clip-0)">0</text></g><line x1="435.83" y1="395" x2="435.83" y2="393" style="stroke-width: 0.5;stroke: rgb(128,128,128);stroke-opacity: 1.0;stroke-linecap: square;shape-rendering:crispEdges;" transform="matrix(1,0,0,1,0,0)" clip-path="url(#_167131773978461clip-0)"/><g transform="matrix(1,0,0,1,0,0)"><text x="525.14" y="411.5" style="fill: rgb(0,0,0); fill-opacity: 1.0; font-family: serif; font-size: 18px;" clip-path="url(#_167131773978461clip-0)">0.5</text></g><line x1="536.64" y1="395" x2="536.64" y2="393" style="stroke-width: 0.5;stroke: rgb(128,128,128);stroke-opacity: 1.0;stroke-linecap: square;shape-rendering:crispEdges;" transform="matrix(1,0,0,1,0,0)" clip-path="url(#_167131773978461clip-0)"/><g transform="matrix(1,0,0,1,0,0)"><text x="632.96" y="411.5" style="fill: rgb(0,0,0); fill-opacity: 1.0; font-family: serif; font-size: 18px;" clip-path="url(#_167131773978461clip-0)">1</text></g><line x1="637.46" y1="395" x2="637.46" y2="393" style="stroke-width: 0.5;stroke: rgb(128,128,128);stroke-opacity: 1.0;stroke-linecap: square;shape-rendering:crispEdges;" transform="matrix(1,0,0,1,0,0)" clip-path="url(#_167131773978461clip-0)"/><g transform="matrix(1,0,0,1,0,0)"><text x="726.77" y="411.5" style="fill: rgb(0,0,0); fill-opacity: 1.0; font-family: serif; font-size: 18px;" clip-path="url(#_167131773978461clip-0)">1.5</text></g><line x1="738.27" y1="395" x2="738.27" y2="393" style="stroke-width: 0.5;stroke: rgb(128,128,128);stroke-opacity: 1.0;stroke-linecap: square;shape-rendering:crispEdges;" transform="matrix(1,0,0,1,0,0)" clip-path="url(#_167131773978461clip-0)"/><g transform="matrix(1,0,0,1,0,0)"><text x="410.5" y="438.78" style="fill: rgb(0,0,0); fill-opacity: 1.0; font-family: sans-serif; font-size: 20px;" clip-path="url(#_167131773978461clip-0)">value</text></g><line x1="79" y1="31" x2="79" y2="393" style="stroke-width: 0.5;stroke: rgb(128,128,128);stroke-opacity: 1.0;stroke-linecap: square;shape-rendering:crispEdges;" transform="matrix(1,0,0,1,0,0)" clip-path="url(#_167131773978461clip-0)"/><g transform="matrix(1,0,0,1,0,0)"><text x="64" y="398" style="fill: rgb(0,0,0); fill-opacity: 1.0; font-family: serif; font-size: 18px;" clip-path="url(#_167131773978461clip-0)">0</text></g><line x1="77" y1="393" x2="79" y2="393" style="stroke-width: 0.5;stroke: rgb(128,128,128);stroke-opacity: 1.0;stroke-linecap: square;shape-rendering:crispEdges;" transform="matrix(1,0,0,1,0,0)" clip-path="url(#_167131773978461clip-0)"/><g transform="matrix(1,0,0,1,0,0)"><text x="41" y="355.96" style="fill: rgb(0,0,0); fill-opacity: 1.0; font-family: serif; font-size: 18px;" clip-path="url(#_167131773978461clip-0)">0.01</text></g><line x1="77" y1="350.96" x2="79" y2="350.96" style="stroke-width: 0.5;stroke: rgb(128,128,128);stroke-opacity: 1.0;stroke-linecap: square;shape-rendering:crispEdges;" transform="matrix(1,0,0,1,0,0)" clip-path="url(#_167131773978461clip-0)"/><g transform="matrix(1,0,0,1,0,0)"><text x="41" y="313.91" style="fill: rgb(0,0,0); fill-opacity: 1.0; font-family: serif; font-size: 18px;" clip-path="url(#_167131773978461clip-0)">0.01</text></g><line x1="77" y1="308.91" x2="79" y2="308.91" style="stroke-width: 0.5;stroke: rgb(128,128,128);stroke-opacity: 1.0;stroke-linecap: square;shape-rendering:crispEdges;" transform="matrix(1,0,0,1,0,0)" clip-path="url(#_167131773978461clip-0)"/><g transform="matrix(1,0,0,1,0,0)"><text x="41" y="271.87" style="fill: rgb(0,0,0); fill-opacity: 1.0; font-family: serif; font-size: 18px;" clip-path="url(#_167131773978461clip-0)">0.01</text></g><line x1="77" y1="266.87" x2="79" y2="266.87" style="stroke-width: 0.5;stroke: rgb(128,128,128);stroke-opacity: 1.0;stroke-linecap: square;shape-rendering:crispEdges;" transform="matrix(1,0,0,1,0,0)" clip-path="url(#_167131773978461clip-0)"/><g transform="matrix(1,0,0,1,0,0)"><text x="41" y="229.82" style="fill: rgb(0,0,0); fill-opacity: 1.0; font-family: serif; font-size: 18px;" clip-path="url(#_167131773978461clip-0)">0.02</text></g><line x1="77" y1="224.82" x2="79" y2="224.82" style="stroke-width: 0.5;stroke: rgb(128,128,128);stroke-opacity: 1.0;stroke-linecap: square;shape-rendering:crispEdges;" transform="matrix(1,0,0,1,0,0)" clip-path="url(#_167131773978461clip-0)"/><g transform="matrix(1,0,0,1,0,0)"><text x="41" y="187.78" style="fill: rgb(0,0,0); fill-opacity: 1.0; font-family: serif; font-size: 18px;" clip-path="url(#_167131773978461clip-0)">0.03</text></g><line x1="77" y1="182.78" x2="79" y2="182.78" style="stroke-width: 0.5;stroke: rgb(128,128,128);stroke-opacity: 1.0;stroke-linecap: square;shape-rendering:crispEdges;" transform="matrix(1,0,0,1,0,0)" clip-path="url(#_167131773978461clip-0)"/><g transform="matrix(1,0,0,1,0,0)"><text x="41" y="145.74" style="fill: rgb(0,0,0); fill-opacity: 1.0; font-family: serif; font-size: 18px;" clip-path="url(#_167131773978461clip-0)">0.03</text></g><line x1="77" y1="140.74" x2="79" y2="140.74" style="stroke-width: 0.5;stroke: rgb(128,128,128);stroke-opacity: 1.0;stroke-linecap: square;shape-rendering:crispEdges;" transform="matrix(1,0,0,1,0,0)" clip-path="url(#_167131773978461clip-0)"/><g transform="matrix(1,0,0,1,0,0)"><text x="41" y="103.69" style="fill: rgb(0,0,0); fill-opacity: 1.0; font-family: serif; font-size: 18px;" clip-path="url(#_167131773978461clip-0)">0.04</text></g><line x1="77" y1="98.69" x2="79" y2="98.69" style="stroke-width: 0.5;stroke: rgb(128,128,128);stroke-opacity: 1.0;stroke-linecap: square;shape-rendering:crispEdges;" transform="matrix(1,0,0,1,0,0)" clip-path="url(#_167131773978461clip-0)"/><g transform="matrix(1,0,0,1,0,0)"><text x="41" y="61.65" style="fill: rgb(0,0,0); fill-opacity: 1.0; font-family: serif; font-size: 18px;" clip-path="url(#_167131773978461clip-0)">0.04</text></g><line x1="77" y1="56.65" x2="79" y2="56.65" style="stroke-width: 0.5;stroke: rgb(128,128,128);stroke-opacity: 1.0;stroke-linecap: square;shape-rendering:crispEdges;" transform="matrix(1,0,0,1,0,0)" clip-path="url(#_167131773978461clip-0)"/><g style="fill: rgb(0,0,0); fill-opacity: 1.0; stroke: none" transform="matrix(0,-1,1,0,-188.5,235.5)" clip-path="url(#_167131773978461clip-1)"><path d="M -19.28 211.12 L -19.28 220.28 L -21.21 220.28 L -21.21 211.12 L -22.72 211.12 L -22.72 209.68 L -21.21 209.68 L -21.21 208.41 Q -21.21 204.62 -17.76 204.62 Q -16.79 204.62 -15.56 204.94 L -15.56 206.46 Q -16.86 206.06 -17.64 206.06 Q -18.59 206.06 -18.93 206.52 Q -19.28 206.97 -19.28 208.2 L -19.28 209.68 L -16.63 209.68 L -16.63 211.12 Z  M -14.22 220.28 L -14.22 209.68 L -12.3 209.68 L -12.3 211.67 Q -11.16 209.44 -8.98 209.44 Q -8.69 209.44 -8.36 209.49 L -8.36 211.29 Q -8.86 211.12 -9.24 211.12 Q -11.07 211.12 -12.3 213.29 L -12.3 220.28 Z  M 1.73 219.94 Q -0.2 220.53 -1.58 220.53 Q -3.92 220.53 -5.4 218.97 Q -6.88 217.41 -6.88 214.93 Q -6.88 212.52 -5.58 210.97 Q -4.27 209.43 -2.24 209.43 Q -0.32 209.43 0.73 210.8 Q 1.78 212.17 1.78 214.69 L 1.77 215.28 L -4.92 215.28 Q -4.5 219.06 -1.21 219.06 Q -0.01 219.06 1.73 218.42 Z  M -4.83 213.84 L -0.15 213.84 Q -0.15 210.88 -2.36 210.88 Q -4.57 210.88 -4.83 213.84 Z  M 11.91 224.14 L 11.91 218.29 Q 10.74 220.53 8.38 220.53 Q 6.46 220.53 5.36 219.13 Q 4.26 217.73 4.26 215.31 Q 4.26 212.66 5.51 211.05 Q 6.75 209.44 8.79 209.44 Q 10.67 209.44 11.91 210.89 L 11.91 209.68 L 13.84 209.68 L 13.84 224.14 Z  M 11.91 212.21 Q 10.42 210.89 9.08 210.89 Q 6.31 210.89 6.31 215.12 Q 6.31 218.84 8.78 218.84 Q 10.38 218.84 11.91 217.09 Z  M 24.32 220.28 L 24.32 218.29 Q 22.79 220.53 20.6 220.53 Q 19.21 220.53 18.39 219.65 Q 17.57 218.78 17.57 217.29 L 17.57 209.68 L 19.5 209.68 L 19.5 216.67 Q 19.5 217.86 19.84 218.36 Q 20.19 218.87 21 218.87 Q 22.76 218.87 24.32 216.55 L 24.32 209.68 L 26.25 209.68 L 26.25 220.28 Z  M 37.88 219.94 Q 35.94 220.53 34.57 220.53 Q 32.22 220.53 30.74 218.97 Q 29.26 217.41 29.26 214.93 Q 29.26 212.52 30.57 210.97 Q 31.87 209.43 33.9 209.43 Q 35.83 209.43 36.88 210.8 Q 37.93 212.17 37.93 214.69 L 37.92 215.28 L 31.23 215.28 Q 31.65 219.06 34.93 219.06 Q 36.13 219.06 37.88 218.42 Z  M 31.31 213.84 L 35.99 213.84 Q 35.99 210.88 33.79 210.88 Q 31.57 210.88 31.31 213.84 Z  M 41.25 220.28 L 41.25 209.68 L 43.17 209.68 L 43.17 211.67 Q 44.69 209.44 46.9 209.44 Q 48.28 209.44 49.1 210.32 Q 49.92 211.19 49.92 212.66 L 49.92 220.28 L 47.99 220.28 L 47.99 213.29 Q 47.99 212.11 47.65 211.6 Q 47.3 211.1 46.5 211.1 Q 44.73 211.1 43.17 213.42 L 43.17 220.28 Z  M 57.8 220.53 Q 55.65 220.53 54.23 218.93 Q 52.82 217.34 52.82 214.92 Q 52.82 212.33 54.22 210.89 Q 55.62 209.44 58.13 209.44 Q 59.37 209.44 60.9 209.78 L 60.9 211.39 Q 59.27 210.92 58.25 210.92 Q 56.77 210.92 55.88 212.02 Q 54.99 213.13 54.99 214.98 Q 54.99 216.77 55.9 217.87 Q 56.82 218.97 58.31 218.97 Q 59.62 218.97 61.02 218.3 L 61.02 219.96 Q 59.16 220.53 57.8 220.53 Z  M 64.52 224.14 L 66.24 220.28 L 62.13 209.68 L 64.21 209.68 L 67.25 217.66 L 70.49 209.68 L 72.31 209.68 L 66.52 224.14 Z "/></g><line x1="133.38" y1="31" x2="133.38" y2="393" style="stroke-width: 0.5;stroke: rgb(192,192,192);stroke-opacity: 1.0;stroke-linejoin: bevel;stroke-dasharray: 2.0, 2.0;shape-rendering:crispEdges;" transform="matrix(1,0,0,1,0,0)" clip-path="url(#_167131773978461clip-2)"/><line x1="234.2" y1="31" x2="234.2" y2="393" style="stroke-width: 0.5;stroke: rgb(192,192,192);stroke-opacity: 1.0;stroke-linejoin: bevel;stroke-dasharray: 2.0, 2.0;shape-rendering:crispEdges;" transform="matrix(1,0,0,1,0,0)" clip-path="url(#_167131773978461clip-2)"/><line x1="335.01" y1="31" x2="335.01" y2="393" style="stroke-width: 0.5;stroke: rgb(192,192,192);stroke-opacity: 1.0;stroke-linejoin: bevel;stroke-dasharray: 2.0, 2.0;shape-rendering:crispEdges;" transform="matrix(1,0,0,1,0,0)" clip-path="url(#_167131773978461clip-2)"/><line x1="435.83" y1="31" x2="435.83" y2="393" style="stroke-width: 0.5;stroke: rgb(192,192,192);stroke-opacity: 1.0;stroke-linejoin: bevel;stroke-dasharray: 2.0, 2.0;shape-rendering:crispEdges;" transform="matrix(1,0,0,1,0,0)" clip-path="url(#_167131773978461clip-2)"/><line x1="536.64" y1="31" x2="536.64" y2="393" style="stroke-width: 0.5;stroke: rgb(192,192,192);stroke-opacity: 1.0;stroke-linejoin: bevel;stroke-dasharray: 2.0, 2.0;shape-rendering:crispEdges;" transform="matrix(1,0,0,1,0,0)" clip-path="url(#_167131773978461clip-2)"/><line x1="637.46" y1="31" x2="637.46" y2="393" style="stroke-width: 0.5;stroke: rgb(192,192,192);stroke-opacity: 1.0;stroke-linejoin: bevel;stroke-dasharray: 2.0, 2.0;shape-rendering:crispEdges;" transform="matrix(1,0,0,1,0,0)" clip-path="url(#_167131773978461clip-2)"/><line x1="738.27" y1="31" x2="738.27" y2="393" style="stroke-width: 0.5;stroke: rgb(192,192,192);stroke-opacity: 1.0;stroke-linejoin: bevel;stroke-dasharray: 2.0, 2.0;shape-rendering:crispEdges;" transform="matrix(1,0,0,1,0,0)" clip-path="url(#_167131773978461clip-2)"/><line x1="79" y1="393" x2="792" y2="393" style="stroke-width: 0.5;stroke: rgb(192,192,192);stroke-opacity: 1.0;stroke-linejoin: bevel;stroke-dasharray: 2.0, 2.0;shape-rendering:crispEdges;" transform="matrix(1,0,0,1,0,0)" clip-path="url(#_167131773978461clip-2)"/><line x1="79" y1="350.96" x2="792" y2="350.96" style="stroke-width: 0.5;stroke: rgb(192,192,192);stroke-opacity: 1.0;stroke-linejoin: bevel;stroke-dasharray: 2.0, 2.0;shape-rendering:crispEdges;" transform="matrix(1,0,0,1,0,0)" clip-path="url(#_167131773978461clip-2)"/><line x1="79" y1="308.91" x2="792" y2="308.91" style="stroke-width: 0.5;stroke: rgb(192,192,192);stroke-opacity: 1.0;stroke-linejoin: bevel;stroke-dasharray: 2.0, 2.0;shape-rendering:crispEdges;" transform="matrix(1,0,0,1,0,0)" clip-path="url(#_167131773978461clip-2)"/><line x1="79" y1="266.87" x2="792" y2="266.87" style="stroke-width: 0.5;stroke: rgb(192,192,192);stroke-opacity: 1.0;stroke-linejoin: bevel;stroke-dasharray: 2.0, 2.0;shape-rendering:crispEdges;" transform="matrix(1,0,0,1,0,0)" clip-path="url(#_167131773978461clip-2)"/><line x1="79" y1="224.82" x2="792" y2="224.82" style="stroke-width: 0.5;stroke: rgb(192,192,192);stroke-opacity: 1.0;stroke-linejoin: bevel;stroke-dasharray: 2.0, 2.0;shape-rendering:crispEdges;" transform="matrix(1,0,0,1,0,0)" clip-path="url(#_167131773978461clip-2)"/><line x1="79" y1="182.78" x2="792" y2="182.78" style="stroke-width: 0.5;stroke: rgb(192,192,192);stroke-opacity: 1.0;stroke-linejoin: bevel;stroke-dasharray: 2.0, 2.0;shape-rendering:crispEdges;" transform="matrix(1,0,0,1,0,0)" clip-path="url(#_167131773978461clip-2)"/><line x1="79" y1="140.74" x2="792" y2="140.74" style="stroke-width: 0.5;stroke: rgb(192,192,192);stroke-opacity: 1.0;stroke-linejoin: bevel;stroke-dasharray: 2.0, 2.0;shape-rendering:crispEdges;" transform="matrix(1,0,0,1,0,0)" clip-path="url(#_167131773978461clip-2)"/><line x1="79" y1="98.69" x2="792" y2="98.69" style="stroke-width: 0.5;stroke: rgb(192,192,192);stroke-opacity: 1.0;stroke-linejoin: bevel;stroke-dasharray: 2.0, 2.0;shape-rendering:crispEdges;" transform="matrix(1,0,0,1,0,0)" clip-path="url(#_167131773978461clip-2)"/><line x1="79" y1="56.65" x2="792" y2="56.65" style="stroke-width: 0.5;stroke: rgb(192,192,192);stroke-opacity: 1.0;stroke-linejoin: bevel;stroke-dasharray: 2.0, 2.0;shape-rendering:crispEdges;" transform="matrix(1,0,0,1,0,0)" clip-path="url(#_167131773978461clip-2)"/><g style="fill: rgb(192,192,192); fill-opacity: 1.0; stroke: none" transform="matrix(1,0,0,1,0,0)" clip-path="url(#_167131773978461clip-2)"><path d="M 111.41 393 L 111.41 393 L 117.89 393 L 124.37 393 L 130.85 393 L 137.34 393 L 143.82 393 L 150.3 393 L 156.78 393 L 163.26 393 L 169.75 393 L 176.23 393 L 182.71 392.16 L 189.19 393 L 195.67 393 L 202.15 393 L 208.64 393 L 215.12 393 L 221.6 393 L 228.08 392.16 L 234.56 391.32 L 241.05 387.95 L 247.53 387.95 L 254.01 387.11 L 260.49 385.43 L 266.97 383.75 L 273.45 380.39 L 279.94 377.02 L 286.42 371.14 L 292.9 361.89 L 299.38 354.32 L 305.86 352.64 L 312.35 340.02 L 318.83 326.57 L 325.31 317.32 L 331.79 294.62 L 338.27 285.37 L 344.75 264.34 L 351.24 234.07 L 357.72 229.87 L 364.2 225.66 L 370.68 172.69 L 377.16 171.01 L 383.65 134.85 L 390.13 116.35 L 396.61 115.51 L 403.09 94.49 L 409.57 93.65 L 416.05 79.35 L 422.54 56.65 L 429.02 74.31 L 435.5 49.08 L 441.98 48.24 L 448.46 76.83 L 454.95 91.96 L 461.43 77.67 L 467.91 101.21 L 474.39 103.74 L 480.87 112.99 L 487.35 142.42 L 493.84 172.69 L 500.32 178.57 L 506.8 218.94 L 513.28 238.28 L 519.76 250.89 L 526.25 277.8 L 532.73 292.93 L 539.21 297.98 L 545.69 311.43 L 552.17 318.16 L 558.65 335.82 L 565.14 354.32 L 571.62 355.16 L 578.1 359.36 L 584.58 366.93 L 591.06 372.82 L 597.55 377.86 L 604.03 385.43 L 610.51 380.39 L 616.99 387.95 L 623.47 388.8 L 629.95 391.32 L 636.44 389.64 L 642.92 393 L 649.4 392.16 L 655.88 391.32 L 662.36 393 L 668.85 393 L 675.33 392.16 L 681.81 393 L 688.29 393 L 694.77 393 L 701.25 393 L 707.74 393 L 714.22 393 L 720.7 393 L 727.18 393 L 733.66 393 L 740.15 393 L 746.63 393 L 753.11 393 L 759.59 393 L 759.59 393 Z "/></g><g style="stroke-width: 1.0;stroke: rgb(64,64,64);stroke-opacity: 1.0;stroke-linecap: square;shape-rendering:geometricPrecision;; fill: none" transform="matrix(1,0,0,1,0,0)" clip-path="url(#_167131773978461clip-2)"><path d="M 111.41 393 L 111.41 393 L 117.89 393 L 124.37 393 L 130.85 393 L 137.34 393 L 143.82 393 L 150.3 393 L 156.78 393 L 163.26 393 L 169.75 393 L 176.23 393 L 182.71 392.16 L 189.19 393 L 195.67 393 L 202.15 393 L 208.64 393 L 215.12 393 L 221.6 393 L 228.08 392.16 L 234.56 391.32 L 241.05 387.95 L 247.53 387.95 L 254.01 387.11 L 260.49 385.43 L 266.97 383.75 L 273.45 380.39 L 279.94 377.02 L 286.42 371.14 L 292.9 361.89 L 299.38 354.32 L 305.86 352.64 L 312.35 340.02 L 318.83 326.57 L 325.31 317.32 L 331.79 294.62 L 338.27 285.37 L 344.75 264.34 L 351.24 234.07 L 357.72 229.87 L 364.2 225.66 L 370.68 172.69 L 377.16 171.01 L 383.65 134.85 L 390.13 116.35 L 396.61 115.51 L 403.09 94.49 L 409.57 93.65 L 416.05 79.35 L 422.54 56.65 L 429.02 74.31 L 435.5 49.08 L 441.98 48.24 L 448.46 76.83 L 454.95 91.96 L 461.43 77.67 L 467.91 101.21 L 474.39 103.74 L 480.87 112.99 L 487.35 142.42 L 493.84 172.69 L 500.32 178.57 L 506.8 218.94 L 513.28 238.28 L 519.76 250.89 L 526.25 277.8 L 532.73 292.93 L 539.21 297.98 L 545.69 311.43 L 552.17 318.16 L 558.65 335.82 L 565.14 354.32 L 571.62 355.16 L 578.1 359.36 L 584.58 366.93 L 591.06 372.82 L 597.55 377.86 L 604.03 385.43 L 610.51 380.39 L 616.99 387.95 L 623.47 388.8 L 629.95 391.32 L 636.44 389.64 L 642.92 393 L 649.4 392.16 L 655.88 391.32 L 662.36 393 L 668.85 393 L 675.33 392.16 L 681.81 393 L 688.29 393 L 694.77 393 L 701.25 393 L 707.74 393 L 714.22 393 L 720.7 393 L 727.18 393 L 733.66 393 L 740.15 393 L 746.63 393 L 753.11 393 L 759.59 393 L 759.59 393 Z "/></g><rect x="79" y="31" width="713" height="362" style="stroke-width: 0.5;stroke: rgb(128,128,128);stroke-opacity: 1.0;stroke-linecap: round;stroke-linejoin: round;shape-rendering:crispEdges;; fill: none" transform="matrix(1,0,0,1,0,0)" clip-path="url(#_167131773978461clip-0)"/></svg>
